<svg id="Layer_1" data-name="Layer 1" xmlns="http://www.w3.org/2000/svg" viewBox="0 0 165.04 172.25"><defs><style>.cls-1{fill:#edeeef;}.cls-2{fill:#f06597;}.cls-3{fill:#eeecee;}.cls-4{fill:#233e49;}.cls-5{fill:#fefdfe;}.cls-6{fill:#e4e5e5;}.cls-7{fill:#f9f8f9;}.cls-8{fill:#9a9a9b;}.cls-9{fill:#e7e7e7;}.cls-10{fill:#a2a2a2;}.cls-11{fill:#202122;}.cls-12{fill:#ed719d;}.cls-13{fill:#1c1d1d;}.cls-14{fill:#ed6a99;}.cls-15{fill:#ee6d9b;}.cls-16{fill:#a0a1a0;}.cls-17{fill:#9a999a;}.cls-18{fill:#a1a0a0;}.cls-19{fill:#8d8c8e;}.cls-20{fill:#c1456d;}.cls-21{fill:#959696;}.cls-22{fill:#9a9999;}.cls-23{fill:#dddddc;}.cls-24{fill:#aaaaab;}.cls-25{fill:#f1d1dd;}.cls-26{fill:#939394;}.cls-27{fill:#b16a81;}.cls-28{fill:#e9d0d9;}.cls-29{fill:#8a8889;}.cls-30{fill:#afb3b2;}.cls-31{fill:#8a8a8b;}.cls-32{fill:#bc476d;}.cls-33{fill:#8b8b8b;}.cls-34{fill:#7f787a;}.cls-35{fill:#878687;}.cls-36{fill:#e879a1;}.cls-37{fill:#f06a9a;}.cls-38{fill:#ee76a2;}.cls-39{fill:#ebaec5;}.cls-40{fill:#ababac;}.cls-41{fill:#939495;}.cls-42{fill:#919293;}.cls-43{fill:#9a999b;}.cls-44{fill:#fefefe;}.cls-45{fill:#eeeeef;}.cls-46{fill:#bd406a;}.cls-47{fill:#807f80;}.cls-48{fill:#8e8e8f;}</style></defs><title>girl_on_call</title><path class="cls-1" d="M46,15.77c1.05-.67.8-1.74.81-2.71,0-3.09.17-6.2,0-9.28C46.56.91,47.54,0,50.46,0,66.84.12,83.21.06,99.59.06a3.86,3.86,0,0,1,.29,2.32c0,10.73.05,21.47,0,32.2-.7,1.23-1.92.82-3,.86-3.09.14-6.19-.18-9.28.18l-.93.52a12,12,0,0,1-5.78.9,20,20,0,0,0-5.61-.65c-8.17,0-16.33,0-24.5,0-4.27,0-4.92-.63-4.91-4.8C45.9,26.31,45.65,21,46,15.77Z"/><path class="cls-1" d="M145,98.4c1.14.78.77,2,.73,3-.26,7.33.46,14.62.58,21.93a5.8,5.8,0,0,0,1.17,2.92c-.53,4.88-.09,9.77-.23,14.66-.12,2.24,0,4.49-.31,6.73l0,17c-2.1,1.11-4.51.51-6.69,1.3-.94.34-1.43-.47-1.33-1.44.08-.8.44-1.54.53-2.34.25-2.22-.43-2.82-2.44-1.78-1.82.95-2.54.41-2.89-1.38a8.37,8.37,0,0,0-4.08-6,2.88,2.88,0,0,1-2-2.91c-.16-3.07-.74-6.12-1.15-9.18-1.49-4.82-1.56-9.8-1.74-14.77-.64-6.2-1.26-12.41-1.8-18.62-.74-7.13-1.31-14.28-2.2-21.39a7.64,7.64,0,0,1,.23-4.13,1.77,1.77,0,0,1,2.11-.64c5,1.19,10.06,2,14.82,4,1.64,2.55-.64,4.15-1.59,6-.57,1.12-1.45.55-2.12-.3a11.15,11.15,0,0,0,1.65,1.92,37.74,37.74,0,0,0,2.56,4.93c1,2,2.32,2.47,4.12.91a2.81,2.81,0,0,1,1.32-.6A1.22,1.22,0,0,1,145,98.4Z"/><path class="cls-2" d="M138.72,85.94c-5.65-1.41-11.2-3.21-17-4l-1.82-.15c-2.43-.22-4.32-1-3.81-4a1.86,1.86,0,0,0-.62-1.61,3,3,0,0,1-.26-1.51c.74-3.73-.2-7.57.71-11.28,3.77-1.83,5.22-4.94,5.11-9,0-1.34-.93-2.38-.9-3.69.37-1.78,2-2.24,3.22-3.19a5.25,5.25,0,0,1,1.77-.76c2.75-.6,5.49-.93,8.08.63,2.09,1,4.4,1.71,6,3.54,2.55,3.08,5.38,6,6.58,9.95a7.4,7.4,0,0,1,.85,3.45c.11,6.68.06,13.36,0,20a5.5,5.5,0,0,1-.45,2.33c-1.51,1.71-3.21,1.07-4.92.4a2.72,2.72,0,0,1-1-1,2.15,2.15,0,0,1,.42-2.24c1.86-2.13,1.26-4.11-.15-6.15s-2.63-4.18-3.44-5.61c.7,1,1.35,2.89,2.66,4.4,2.77,3.2,2.25,6.24-.28,9.25A.79.79,0,0,1,138.72,85.94Z"/><path class="cls-3" d="M115.82,76.17c.15.25.45.52.42.74-.62,3.48,1.62,4.11,4.28,4.35,1.27,2.25.89,4.82,1.15,7.2.75,6.77,1.39,13.56,2.17,20.33.52,5.72,1.25,11.43,1.55,17.17-.29,4.44-.37,8.91-1.62,13.23a31.43,31.43,0,0,1-14.79-22c-1.24-7.25-.13-14.42,1.63-21.5,1.1-4.46,3-8.62,4.62-12.88.75-2,1.12-4-.12-6C115.09,76.31,115.29,76.06,115.82,76.17Z"/><path class="cls-4" d="M130.78,152.5c3.43,1.52,4,4.67,4.36,8,1.57-.71,3-2.94,4.71-1.43,2.18,1.92-.38,4.13-.46,6.71A10.2,10.2,0,0,1,147,164.6c.35.34,1,.7,1,1-.26,3.51,2.2,2.48,3.95,2.32,2.48-.22,4.2.47,4.71,3.11-.3,1.59-1.58.88-2.39.88-20.48,0-41,.08-61.44,0a.56.56,0,0,1-.41-.87c1.12-1.62,2-3.5,4.3-3.78,1-.12.74-.87.75-1.6,0-3.72,2-5,5.4-3.52a8.74,8.74,0,0,1,2.28,1.4c1.43,1.24,2.46,3,4.81,1,1.1-.92,2.8.35,4.32,1,.15-2.48-1.26-5.66,1.38-6.91,3.4-1.61,5.51,1.64,8,3.69.74-3.74.36-7.74,4.1-10A3.92,3.92,0,0,1,130.78,152.5Z"/><path class="cls-5" d="M145.76,87c0-6.54,0-13.08,0-19.62A35.76,35.76,0,0,0,145.2,60c.23-.23.43-.2.61.07L147,61.28c1.51,4.53,4,8.64,5.07,13.38a22.91,22.91,0,0,1-3,18.3c-.7,1.07-1.34,2.29-3,2.14C144.27,92.47,144.44,89.75,145.76,87Z"/><path class="cls-6" d="M147,147.64c-1.19-2.17-.43-4.49-.5-6.74,1.36.35,1.08,1.59,1.49,3-.14-5.13.31-9.77-.34-14.39a3.19,3.19,0,0,1,.45-2.82c1.65,2.2,4.23,2.4,6.59,2.88,2,.41,2.62,1.32,2.56,3.26-.11,3.88-.07,7.77,0,11.66,0,1.8-.14,3-2.46,2.06A7.25,7.25,0,0,0,147,147.64Z"/><path class="cls-7" d="M135.9,33.09a1,1,0,0,1,.3.44c.26,2.15.72,4.36-1.57,5.83-1.49-.12-1.92-1.89-3.34-2.11-1.47-.7-2.4-3.36-4.63-1.28-1.28.24-2.68.32-2.72,2.14,0,.56-.11,1.12-.1,1.69a4.17,4.17,0,0,0,.88,2.46c1,1.46,1.81,2.91.12,4.42s-4.79,2-6.32.86a2.53,2.53,0,0,1-.93-1.46V44.59a20.68,20.68,0,0,1,3.1-9.79,10.79,10.79,0,0,1,6.73-5A9.43,9.43,0,0,1,135.9,33.09Z"/><path class="cls-8" d="M92.67,171.5l62.32.07a1.83,1.83,0,0,0,1.63-.53H165v1c-55,.8-110-.91-165,0-.09-1.17.54-1,1-1l85.47.08C88.49,171.73,90.61,171.07,92.67,171.5Z"/><path class="cls-9" d="M131.19,36.76c1.86-.28,2.42,1.27,3.31,2.35.25,1.17-1.28,1.42-1.29,2.46-.75,1-1.66,2-1.77,3.32-1.51.89-2.94.11-4.39-.21a7.18,7.18,0,0,1-4-5.49l.53-1.24c1-1.63,2.87-1.71,4.47-2.22C129.4,35.13,130,36.73,131.19,36.76Z"/><path class="cls-10" d="M146.53,95c4.92-5,6.5-11,5.46-17.77a43,43,0,0,0-4.33-12.91c-.47-.93-1.34-1.83-.62-3,5.26,8.52,8.3,17.41,4.91,27.49-1.33,3.93-4.15,6.75-6.91,9.63l-.49,0a.9.9,0,0,1-.76-.81A3.42,3.42,0,0,1,146.53,95Z"/><path class="cls-11" d="M148.08,126.71a55.91,55.91,0,0,1,.48,17.79c-.1.71.27,2.16-1.11,2-1-.14-.49-1.33-.59-2.06-.15-1.16.16-2.38-.38-3.51,0-4.14-.06-8.27,0-12.41,0-.87-.5-2.1,1.09-2.24Z"/><path class="cls-12" d="M109.8,45c-.15,1.17-.72,2.24.52,3.41,1.68,1.59-.41,2.7-1,4-.51.12-.59.66-.91,1-2.88.78-4.74-1.16-3.93-4.35a20.37,20.37,0,0,1,3.6-7.45,1.94,1.94,0,0,1,.78-.37C111.38,42,109.15,43.84,109.8,45Z"/><path class="cls-13" d="M123.77,139.19a59.2,59.2,0,0,1,1.14-13c.32-.48.65-.47,1,0q.61,7.44,1.24,14.86c-.17.33-.34.32-.51,0Z"/><path class="cls-14" d="M116.35,61.7c-.16-3.68,0-7.25,3-10a2.26,2.26,0,0,1,1.83,2.38A13.44,13.44,0,0,1,120,60.44C119.31,62,118.23,63.22,116.35,61.7Z"/><path class="cls-15" d="M109.75,40.65a6.08,6.08,0,0,1,4.08-4c1.27-.31,3-.7,3.4,1.28.33,1.8-.65,3.37-2.47,3.33s-2.66,1-3.73,1.92A4.68,4.68,0,0,1,109.75,40.65Z"/><path class="cls-16" d="M99.68,67.23C97.21,58.11,98.45,49.8,105,42.61a1.48,1.48,0,0,1,.47.84,2.62,2.62,0,0,1-.43,1.7,28.38,28.38,0,0,0-4.16,20.75C100.68,66.54,100.61,67.26,99.68,67.23Z"/><path class="cls-17" d="M108.52,53.16c.13-.42.32-.76.84-.73.67,2.3.69,4.83,2.65,6.92-.2-4.46-.3-8.82,4.19-11.6-3.52,4.64-4.64,9.27-.33,13.94a.69.69,0,0,1,0,.81c-1.68.08-3-1.15-4.77-1.17-1.46,0-1.9-1.9-2.22-3.24C108.53,56.49,107.69,54.88,108.52,53.16Z"/><path class="cls-18" d="M99.68,67.23l.61-1.37c1.32.33,1.38,1.57,1.76,2.54a14.88,14.88,0,0,0,3.42,5.15c2.3,2.27,4.89,3.29,8.06,1.83.7-.32,1.43-.74,2.25-.3,0,.37,0,.73,0,1.09l-.71.64c-6.29,2.34-10.68.48-14-6A37,37,0,0,1,99.68,67.23Z"/><path class="cls-19" d="M99.51,34.77q0-17.36.08-34.71c.91.28.77,1.06.76,1.72q0,16.89-.09,33.77C99.62,35.66,99.39,35.38,99.51,34.77Z"/><path class="cls-20" d="M115.8,62.53c0-.28,0-.56.07-.84a1.11,1.11,0,0,0,.48,0c1,.2,2,.35,2.74-.55,1.54-1.75,1.71-7.39.25-9.45l-.48-1.17a1,1,0,0,1,1.71,0c2,3,1.37,6,.42,9.13-.68,2.21-2.09,3.6-4.59,3.46A.84.84,0,0,1,115.8,62.53Z"/><path class="cls-21" d="M127.22,30.15c-5.49,2-7.55,6.5-8.82,11.64-.23,1-.09,2-.81,2.8C116,39.17,121.26,31,127.2,29.5c.21.14.28.28.21.43S127.29,30.15,127.22,30.15Z"/><path class="cls-22" d="M123.05,39.19c1.17,1.75,1.55,4.19,4.13,4.7.3.54,0,1-.23,1.44a4.92,4.92,0,0,1-2.15,2.11l-1.46.64c-2,1-4.14,2.43-5.8-.56-.22-.49-.8-1,0-1.44,1.57,1.71,3.41,1.67,5.4.9,2.5-1,2.76-1.83,1.16-4C123.31,41.86,122.59,40.7,123.05,39.19Z"/><path class="cls-23" d="M85.81,41.47,81.52,36.7c1.52-1,3.44-.32,5-1.17.21,2,.52,4-.25,6H86Z"/><path class="cls-24" d="M99.51,34.77l.75.78c-4.17,1.2-8.44.25-12.65.53a.76.76,0,0,1-.65-.66c2.83-1.2,5.81-.28,8.71-.54C96.94,34.76,98.23,34.8,99.51,34.77Z"/><path class="cls-25" d="M124.8,47.44l1.78-2.39a9.27,9.27,0,0,1,6,1.17l.65,1.2A36.31,36.31,0,0,0,124.8,47.44Z"/><path class="cls-26" d="M126.64,141a1.46,1.46,0,0,1,.51,0c1.18,2.5.94,5.24,1.15,7.85.16,1.93.74,3,2.48,3.64l-3.06-.14C127.87,148.53,126.41,144.85,126.64,141Z"/><path class="cls-27" d="M145.81,60.05,145.2,60c-1.5-3.33-4.54-5.64-6-9A16.51,16.51,0,0,1,145.81,60.05Z"/><path class="cls-28" d="M117.54,47.52c1.79,1.7,3.81.95,5.8.56l-2.77,2.49-1.71,0C118.67,49.42,116.25,49.28,117.54,47.52Z"/><path class="cls-29" d="M133.21,41.57c-.61-1.36,1.21-1.46,1.29-2.46,2-1.43,1.16-3.71,1.7-5.58C137.54,36.91,137,38.46,133.21,41.57Z"/><path class="cls-30" d="M132.55,46.22c-2.09.15-4-.91-6-1.17l.6-1.16,4.26,1C132.14,45.06,132.67,45.37,132.55,46.22Z"/><path class="cls-31" d="M127.22,30.15l0-.65c3.51-.27,6.83-.09,8.7,3.59C133.25,31.4,130.63,29.6,127.22,30.15Z"/><path class="cls-32" d="M109.75,40.65A2.63,2.63,0,0,1,111,43.19L109.8,45c-.81-.07-1.42-.36-.72-1.22a1.59,1.59,0,0,0,.1-2.3c0-.31.42-.42.36-.76Z"/><path class="cls-33" d="M87,35.42l.65.66c-1,1.79,0,3.79-.65,5.62,0,0-.19.11-.26.08a2.86,2.86,0,0,1-.42-.29l.24-6A4,4,0,0,0,87,35.42Z"/><path class="cls-34" d="M109.54,40.74l-.36.76-.29,0-.27.07c-1.12.79-2.05,1.93-3.59,1.93l-.07-.87A4.63,4.63,0,0,1,109.54,40.74Z"/><path class="cls-35" d="M92.67,171.5c-2.08,0-4.21.65-6.23-.38l5.94-.08A.56.56,0,0,1,92.67,171.5Z"/><path class="cls-36" d="M75.09,17.56c0,1.37-.63,1.77-1.69,1.75a1.66,1.66,0,0,1-1.85-1.84c0-1.18.81-1.59,1.77-1.55S75.34,16.34,75.09,17.56Z"/><path class="cls-37" d="M63,19.28a1.57,1.57,0,0,1-1.66-1.73c0-1.19.72-1.44,1.73-1.43a1.44,1.44,0,0,1,1.58,1.66A1.41,1.41,0,0,1,63,19.28Z"/><path class="cls-38" d="M82.29,18.58c-.06-1.18-.36-2.41,1.56-2.48s2,1.08,1.85,2.49A2.46,2.46,0,0,1,82.29,18.58Z"/><path class="cls-39" d="M82.29,18.58H85.7C84.55,20.35,83.45,20.35,82.29,18.58Z"/><path class="cls-40" d="M123.49,108.78c-1.38-6-1.39-12.21-2.25-18.3-.43-3-.49-6.15-.72-9.22.58-.06,1.11,0,1.2.73q1.22,11.72,2.41,23.42a20.8,20.8,0,0,1,0,2.09C123.74,107.83,124.08,108.55,123.49,108.78Z"/><path class="cls-41" d="M123.49,108.78c.22-.42.43-.85.65-1.28l1.77,18.65-1,0Q124.21,117.48,123.49,108.78Z"/><path class="cls-42" d="M144,97.86l.55.51c-4.23,3.4-4.28,3.42-6.89-1.17-.72-1.26-2.26-2.33-1.46-4.16l.42-.08a3.27,3.27,0,0,1,1.6,2C139.28,97.76,141.06,98.94,144,97.86Z"/><path class="cls-43" d="M140.26,85.84l.54.47c-1.41,2.34-2.4,5-4.62,6.76l0,0c-2.06-.39-2.07-2.36-3.18-3.84,1.79,0,1.62,1.76,3,2.43.9-1.89,1.82-3.79,2.73-5.69l.5-.19A.74.74,0,0,1,140.26,85.84Z"/><path class="cls-44" d="M105,43.48c1.14-.75,1.91-2.18,3.59-1.93-1.07,2.33-2.28,4.62-3.18,7-1.09,2.9.23,4.72,3.08,4.59a39.6,39.6,0,0,0,1.26,5.13c.48,1.23.21,3.77,3.13,2.21,1-.55,1.56,1.79,2.89,2l.6.63c-.53,4,.57,8-.62,11.92q-9.56,4.67-14.1-5.63c-.51-1.18-.93-2.39-1.39-3.59C98.43,57.67,100.45,50.31,105,43.48Z"/><path class="cls-45" d="M136.18,93.07c1.53-2.26,2-5.25,4.62-6.76a8.8,8.8,0,0,0,5,.67c.11,2.68-.63,5.44.77,8L144,97.86c-3.4,2.31-3.4,2.31-5.62-1.31C137.66,95.38,136.91,94.23,136.18,93.07Z"/><path class="cls-46" d="M140.26,85.84l-1-.09c3.21-4.12,1.42-7.62-1.25-11.11a33.57,33.57,0,0,1-2.43-4.36l.71-.42c2.15,3.53,4.63,6.92,6.29,10.68C143.29,82.22,141.14,84.08,140.26,85.84Z"/><path class="cls-47" d="M131.19,36.76c.06.56,0,1-.66.45s-1.12-1.36-2.16-1.16c-.68.26-1.43.81-1.71-.46C129.23,31.88,129.81,35.88,131.19,36.76Z"/><path class="cls-48" d="M126.66,35.59c.46.58,1.11.44,1.71.46L123.58,38C123.2,35.32,124.73,35.19,126.66,35.59Z"/></svg>