<svg id="Layer_1" data-name="Layer 1" xmlns="http://www.w3.org/2000/svg" viewBox="0 0 196.03 146.57"><defs><style>.cls-1{fill:#a8c8d5;}.cls-2{fill:#5392ac;}.cls-3{fill:#eeedee;}.cls-4{fill:#233e49;}.cls-5{fill:#f06597;}.cls-6{fill:#e6e5e6;}.cls-7{fill:#939393;}.cls-8{fill:#a7a6a7;}.cls-9{fill:#a7a7a7;}.cls-10{fill:#a8a8a8;}.cls-11{fill:#a2a1a1;}.cls-12{fill:#a96c80;}.cls-13{fill:#9a9b9b;}.cls-14{fill:#8e8e8e;}.cls-15{fill:#908f8f;}.cls-16{fill:#a9a8a8;}.cls-17{fill:#898989;}.cls-18{fill:#848384;}.cls-19{fill:#abaaab;}.cls-20{fill:#b57387;}.cls-21{fill:#828283;}.cls-22{fill:#848484;}.cls-23{fill:#a97384;}.cls-24{fill:#888789;}.cls-25{fill:#8a8a8a;}.cls-26{fill:#797878;}.cls-27{fill:#868586;}.cls-28{fill:#1d1e1e;}.cls-29{fill:#070707;}.cls-30{fill:#ef6697;}.cls-31{fill:#a4a4a6;}.cls-32{fill:#a6a6a7;}.cls-33{fill:#b33f65;}.cls-34{fill:#be406a;}.cls-35{fill:#edeced;}.cls-36{fill:#ead2db;}.cls-37{fill:#bd466e;}.cls-38{fill:#9e9c9d;}.cls-39{fill:#bc6380;}.cls-40{fill:#b37388;}.cls-41{fill:#a1a0a1;}.cls-42{fill:#b76f86;}.cls-43{fill:#8d8d8d;}.cls-44{fill:#9ca2a0;}.cls-45{fill:#717172;}.cls-46{fill:#5c5d5d;}.cls-47{fill:#eeeff1;}.cls-48{fill:#efeff0;}.cls-49{fill:#040404;}.cls-50{fill:#a4a3a4;}.cls-51{fill:#a2a0a1;}.cls-52{fill:#a5a4a5;}.cls-53{fill:#a4a3a3;}.cls-54{fill:#949494;}.cls-55{fill:#acacad;}.cls-56{fill:#a1a1a1;}.cls-57{fill:#aa5b74;}.cls-58{fill:#868789;}.cls-59{fill:#a86479;}.cls-60{fill:#ef6798;}.cls-61{fill:#aaa9ab;}.cls-62{fill:#a74062;}.cls-63{fill:#ef6c9b;}.cls-64{fill:#294956;}.cls-65{fill:#f2f3f3;}.cls-66{fill:#afaaac;}.cls-67{fill:#aea8aa;}.cls-68{fill:#848686;}.cls-69{fill:#f8f6f7;}.cls-70{fill:#f8f5f6;}.cls-71{fill:#bc486e;}.cls-72{fill:#cbcacb;}.cls-73{fill:#b9426a;}.cls-74{fill:#9a9b9c;}.cls-75{fill:#fff;}</style></defs><title>girls_painting_together</title><path class="cls-1" d="M126.17,53.51c-1.23-2.86-.5-5.87-.51-8.8,0-2.66-.5-4.78-2.7-6.56a41.13,41.13,0,0,1-5.67-5.68c-1.18-1.4-1.86-1-2.85,0-3.29,3.34-6.77,6.51-9.89,10-2.11,2.36-3.43,2-5.46-.12-6.57-6.81-13.41-13.38-20-20.17-1.68-1.74-2.66-1.67-4.24,0-3.12,3.37-6.43,6.56-9.72,9.77a6.19,6.19,0,0,0-2,4.79c.07,9.18.06,18.36.07,27.54.18.12.24.23.17.33s-.13.15-.19.15c0,.22,0,.43,0,.65-1-.9-.56-2.07-.57-3.12,0-8.4-.39-16.82.08-25.19.62-11,.41-21.9.47-32.85,0-1.76.48-2.48,2.37-2.48q28.8.09,57.59,0c2,0,2.56.75,2.51,2.64-.11,3.7.06,7.4-.05,11.1C125.17,28.25,126.34,40.87,126.17,53.51Z"/><path class="cls-2" d="M63.4,65c0-9.38,0-18.77-.09-28.16a4.74,4.74,0,0,1,1.51-3.7c3.58-3.49,7.16-7,10.58-10.61,1.45-1.54,2.3-1.19,3.6.12,6.87,7,13.89,13.79,20.68,20.84,1.77,1.85,3,1.42,4.42.05,3.3-3.27,6.56-6.6,9.73-10,1.45-1.57,2.69-1.93,4.12-.1A4.84,4.84,0,0,0,119,34.45c6.54,4.18,7.53,10.63,7.36,17.63,0,1.09-.85,2.74,1.18,3.18a.82.82,0,0,1,.09.76c-1,1-2.21,1.88-2.9,3.17-.3,1,.91,1,1.05,1.63a5.9,5.9,0,0,1,.57,2.59c.22,2.07-.54,2.76-2.67,2.75-19.47-.07-38.95,0-58.42-.08-.64,0-2.28.9-1.85-1.14a7,7,0,0,0,3.24.25q27.11,0,54.22,0c1.09,0,2.18-.06,3.27,0-15.07,0-30.14,0-45.21,0C73.76,65.15,68.57,65.49,63.4,65Z"/><path class="cls-3" d="M192.35,54.1c-2.42,2.44-2.36,5.63-2.37,8.67-.06,23.46,0,46.92-.07,70.38,0,3.25,1.41,7.34-.69,9.54s-6.25.61-9.49.77a21.54,21.54,0,0,0-5.6.7c-.85.28-1.71.55-2.39-.34.12-1.82,1.76-3,2.07-4.7.78-1.92-.13-3.76-.31-5.61-.67-6.73-1.25-13.48-2.24-20.18-1.34-7.41-1.76-14.93-2.57-22.4a41.65,41.65,0,0,1-.58-7.4c0-5.29-1-10.5-1.42-15.75-.39-4.45-1.13-8.88-1.07-13.37,1.08-1.48,2.47-.75,3.8-.52,5.52.92,10.88,2.47,16.29,3.83,1.95.49,3.38.21,3.61-2.15a2.61,2.61,0,0,1,.77-1.23C190.8,53.86,191.52,53.49,192.35,54.1Z"/><path class="cls-3" d="M151,137a2.91,2.91,0,0,0,1.52-3,158.42,158.42,0,0,1,.68-27.71c.65-6.31,1.28-12.63,2-18.93.87-7.08,2.17-14.11,3.2-21.17.35-2.41,1.26-4.76,1-7.26-.3-.57.08-1.24-.27-1.81.45-1.69.34-3.56,1.59-5,1.87.11,4.14-.73,4.85,2.08.83,9.93,2.59,19.76,2.81,29.74-.15,4-1.42,7.84-1.81,11.83a54.22,54.22,0,0,0,4.52,28.35c-.41,5.6-2.15,10.91-3.53,16.3a2.4,2.4,0,0,1-1.42,1.47c-2.36-.29-4.7-.84-7.11-.42-.72.13-1.59,0-1.71-.84-.4-2.92-2.55-2.9-4.7-3A2.29,2.29,0,0,1,151,137Z"/><path class="cls-4" d="M151,137a37.53,37.53,0,0,1,3.81-.19c1.21.05,2.93.53,2.91,1.6-.07,3.35,2.06,2,3.6,2,1.7,0,3.38,0,4.56,1.5a1.54,1.54,0,0,1,.24,2.12c-1,.68-2.13.35-3.2.35q-29.81,0-59.6,0a1.61,1.61,0,0,1-1-.26,2.25,2.25,0,0,1,1.31-3c1.95-1.11,4.06-1.76,3.81-5-.15-1.92,2.11-2.43,4-2a9.84,9.84,0,0,1,5,3.19c.74.84,1.17,1.19,2.24.13,1.55-1.54,3.35-.36,5.21.46,0-1.42-.07-2.65,0-3.87.22-3.14,2-4.2,4.92-2.94,1.74.74,2.94,2.22,4.6,4,.3-2.63.38-4.71,1.13-6.65s1.84-3.6,4.22-3.69c2.54-.09,4.14,1.31,5,3.53a43,43,0,0,1,1.23,4.24c.87.13,1.16-.72,1.8-.94.93-.32,1.85-1,2.83-.23s.67,1.78.34,2.92C149,137.15,149.09,137.18,151,137Z"/><path class="cls-5" d="M98.75,108.67c-4.92.53-8.63-1.38-10.63-5.88-1.91-4.29-.81-8.16,2.49-11.44a16.61,16.61,0,0,0,3-4.79,9.83,9.83,0,0,1,17.92.44A14.11,14.11,0,0,0,114,91c3.75,4,5.29,8.2,2.21,13.27-3.13,4.09-7.31,5.08-12.16,4.1-1.78-1.31-2.36-4.7-1.08-6.77a8,8,0,0,1,1.71-2.05c-.8.48-1.13,1.65-2.26,1.62s-1.45-1-2.11-1.67c2.77,2.51,2.45,5.56,1.54,8.72C100.8,108.4,99.78,108.55,98.75,108.67Z"/><path class="cls-5" d="M164,23.39c4.74-6.14,14.74-5.38,20.17,0,1.59,1.36,2.83,3.07,4.35,4.51a8.92,8.92,0,0,1,1.27,2.59c1.82,7.66,1.18,15.4.7,23.12a2.22,2.22,0,0,1-2.55,1.1,39.18,39.18,0,0,1-17.3-7.33c0-1.73,1.83-1.82,2.62-2.85,2.16-1.47,2.34-4,3.33-6.13,2.48-1.12,4.44.71,6.44,1-2.07-1-4.68-1.18-7-2.26-2.6-2.3-5.41-3.54-8.81-1.67a4.48,4.48,0,0,1-.89.15c-2-.38-3.89,1.16-5.91.36-1.19-2.43-.63-4.89-.19-7.35a6.15,6.15,0,0,1,.13-.86C161.82,26.53,162.69,24.79,164,23.39Z"/><path class="cls-3" d="M160.66,28.42l-.06,7.49c0,.13-.1.26-.16.39a2.79,2.79,0,0,1-.47.36c-1,.61-2.8.7-2.74,1.87s1.54,2.19,2.8,2.8a65.94,65.94,0,0,1,5.9,3.36c.87.55,2,1,1.95,2.33-1.69,2-4.32,2.23-6.51,3.3a11.82,11.82,0,0,0-4.15,1.92,5.92,5.92,0,0,1-2.71,1.37c-2.12.22-3.94,1.33-5.91,2a29.24,29.24,0,0,0-5.61,2,24.55,24.55,0,0,1-13.3,2.47,2.31,2.31,0,0,1-.92-.26c-1-1.08-1.94-2.16-1.27-3.79l0-.75c1.5-3.54,4.72-5.22,7.84-6.81,2.75-1.39,5.4-2.76,7.13-5.42,1.22-1.22,2.47-.64,3.72-.05.39.18.65.45.46.89s-.66.11-.88.41c.26-.14.57-.07.82-.21s.44-.65.84-.79a20.91,20.91,0,0,0,5.36-2.54c2.09-3,3.41-6.42,5.48-9.42C159,30.29,159.39,29,160.66,28.42Z"/><path class="cls-6" d="M168.32,14.2c-.35-2.27-2.55-4.61.22-6.79-.33,1.29,1.6,1.61,1.34,2.6-.07-.86-.62-2.3,1.26-2.6.26-.2.67.12.87-.27-.19,0-.38.09-.58.12-.86-.33-1.6,1.67-2.5.12C168.77,5.09,170.24,4.56,172,5c1.42.33,3.74-.57,3.72,2.48,0,1.72,1.3,2.77,3.28,2.24.63.46.38,1,.15,1.55-.85,2.08-3.19,3.21-3.57,5.59-1.77,1-3.29-.09-4.89-.58A2.93,2.93,0,0,1,168.32,14.2Z"/><path class="cls-7" d="M102.44,144l61.27,0c.76,0,1.62.25,2.23-.5,2-.29,4-1.34,6,.07.51,1,1.41.64,2.22.6-.78.68-1.73.37-2.59.37q-43,0-85.92,0a3.15,3.15,0,0,1-3-1H95.81C98,144.19,100.27,143.41,102.44,144Z"/><path class="cls-8" d="M103.54,141.08c-.34.84-1.3,1.34-1.31,2.36-.21.29-.39.26-.57,0q0-17.26,0-34.52a1.14,1.14,0,0,1,1.91-.07,3.34,3.34,0,0,0-.57,2.26q0,14,0,28.08C103,139.85,102.92,140.57,103.54,141.08Z"/><path class="cls-9" d="M129.32,59.63c7,.75,13-2.44,19.26-4.86q.31.33.66.63a9.93,9.93,0,0,0,5.87,1.51c1.43,0,2.94-.32,4.27.58.82.48.17.95,0,1.41-4.09,1.24-7.83.16-11.41-1.77-1.18-.64-2.08-.09-3.1.32-3.49,1.4-6.86,3.24-10.79,3.15C132.59,59.71,130.6,61.41,129.32,59.63Z"/><path class="cls-10" d="M193.05,54.05c3.36-5.6,1.3-11.21,0-16.82.33-.33,0-.94.53-1.19,2.33,4.54,2.68,9.42,2.33,14.37C195.79,52.1,195.1,53.7,193.05,54.05Z"/><path class="cls-11" d="M170.22,2.56A16.67,16.67,0,0,1,159.82,2a7,7,0,0,0-6.51.46,1,1,0,0,1-.59-.55A4.67,4.67,0,0,1,158.58.47a24.79,24.79,0,0,0,11,1.48C169.79,2.15,170.16,2.2,170.22,2.56Z"/><path class="cls-12" d="M103.56,108.82l-1.91.07c-.93-.47-2,.73-2.9-.22.73-1,1.85-.49,2.79-.71a2.13,2.13,0,0,1,2.09,0,14.27,14.27,0,0,0,12.55-3.71c-1.53,3.43-5.46,5.45-9.71,5C105.5,109.14,104.53,109,103.56,108.82Z"/><path class="cls-13" d="M160.66,28.42q-3,5.29-6.08,10.6c-.41.72-.51,1.81-1.75,1.72,1.78-5,4.71-9.34,7.74-13.63a.52.52,0,0,1,.22.44c0,.17,0,.26-.09.26Z"/><path class="cls-14" d="M147.35,7.05c2.13,4.61,6,6.94,10.72,8.15.05,1.16-.66.71-1.22.58a15.23,15.23,0,0,1-8.74-5.66C147.51,9.28,146.23,8.4,147.35,7.05Z"/><path class="cls-15" d="M193.58,36c-.17.4-.35.8-.53,1.19-1.26-2.48-1.54-5.54-4.25-7.17-.25-.78-.49-1.57-.74-2.35a.63.63,0,0,1,.13-.82C190.85,29.43,192.21,32.74,193.58,36Z"/><path class="cls-16" d="M156.85,15.78l1.22-.58c2.4.75,4.9.31,7.34.58.34.38,1.06,0,1.27.65C163.32,17.5,160.06,16.93,156.85,15.78Z"/><path class="cls-17" d="M179.14,11.23,179,9.68c.52-3.08-.43-5.41-3.41-6.71,0-.5,0-.86.65-.51C179.91,4.34,180.93,7.4,179.14,11.23Z"/><path class="cls-18" d="M129.32,59.63c1.39,1.25,3.33-.17,4.74,1l-8.27.22c-2.83-.24-2.84-.25-1.79-1.88,1.56.68,3.25.2,4.85.49A.9.9,0,0,1,129.32,59.63Z"/><path class="cls-19" d="M170.65,15.83l4.92,1c.27.27.78.54.78.81,0,.71-.68.59-1.09.48-1.76-.47-3.7-.42-5.17-1.75A.94.94,0,0,1,170.65,15.83Z"/><path class="cls-20" d="M188.19,26.89c0,.27-.08.54-.13.82a9.49,9.49,0,0,1-3.92-4.32C186.17,23.78,187.09,25.43,188.19,26.89Z"/><path class="cls-21" d="M147.48,43.28c-.33,2.63-2.39.6-3.72,2.27.58-2.25,1.86-1.29,2.47-2a3.32,3.32,0,0,0-3.71-.54C144.15,41.54,144.56,41.56,147.48,43.28Z"/><path class="cls-22" d="M152.72,1.88l.59.55c-1.78,1.36-4.78,0-6,2.69.11-1.88.7-2.57,2.54-2.75C150.85,2.27,151.85,2.46,152.72,1.88Z"/><path class="cls-23" d="M160.7,27.81c0-.23-.09-.47-.13-.7,1.07-1.3,1.57-3.13,3.41-3.72C163.2,25.1,162.59,26.92,160.7,27.81Z"/><path class="cls-24" d="M170.65,15.83l-.56.53-3.41.07-1.27-.65c1.09-.31,2.8.55,2.91-1.57Z"/><path class="cls-25" d="M176.23,2.46l-.65.51c-1.75-.63-3.57-.35-5.36-.41L169.58,2C171.82,1.88,174.09,1.26,176.23,2.46Z"/><path class="cls-26" d="M101.66,143.41a5.44,5.44,0,0,0,.57,0l.21.59c-2.2-.18-4.47.54-6.63-.43Z"/><path class="cls-27" d="M63.4,65h61.83c-.63,1-1.43.57-2.07.57q-28.47,0-56.95,0c-.94,0-2,.38-2.79-.58Z"/><path class="cls-28" d="M128.85,59.43c-1.7.7-3.46,1.94-4.85-.49,1.23-.9,1.47-3,3.5-2.93Z"/><path class="cls-29" d="M170.73,124.26c-1.45-.22-1.37-1.58-1.72-2.5-4.61-12.38-4.68-24.94-1.21-37.59.27-.39.4-1,1.11-.62L172,113.48c.54,2.87.13,5.74,0,8.61A3.66,3.66,0,0,1,170.73,124.26Z"/><path class="cls-30" d="M165.27,54.06c-1-2-3.4-.53-4.64-1.9a1.17,1.17,0,0,1-.39-1.26,1.36,1.36,0,0,1,1.09-.78,37.73,37.73,0,0,0,5.4-2.2,4.66,4.66,0,0,1,3.42-.38c6,3,11.94,6.32,18.85,7,.44,0,.64.41.77.8.33,3.9-.08,4.29-3.79,3.39-6.16-1.5-12.32-3.06-18.49-4.57a5.69,5.69,0,0,0-1.48.05A.51.51,0,0,1,165.27,54.06Z"/><path class="cls-31" d="M165.27,54.06l.74.11c1.12,9.78,2.4,19.54,2.9,29.38l-1.11.62c.1-8-1.61-16-2.13-23.94C165.54,58.17,165.4,56.12,165.27,54.06Z"/><path class="cls-32" d="M173.8,139.8q-.68-7.53-1.36-15.06a2.65,2.65,0,0,0-1.15-2.29c0-3,1.24-5.92.7-9,1.22,3.81,1,7.81,1.54,11.71s.8,8.07,1.32,12.1C175,138.15,175.67,139.62,173.8,139.8Z"/><path class="cls-33" d="M189.77,55.3A59.16,59.16,0,0,1,170.1,48c-.56-.42-1.44.06-1.89-.68a.76.76,0,0,1,.33-.73,2.46,2.46,0,0,1,1.28-.26A1.48,1.48,0,0,1,171,47c5.87,3.47,11.78,6.83,18.88,7l.7.76Z"/><path class="cls-34" d="M103.63,108l-2.09,0c.52-4.18.52-4.18-3.16-10.13a1.1,1.1,0,0,1,1.52.5c2,3.41,3.75,2,5.51-.23.17-.22.48-.32,1.06-.37C104.12,100.83,101.3,103.78,103.63,108Z"/><path class="cls-35" d="M169.44,46.82l-1,0a42.81,42.81,0,0,0-7.75-4.84c-.26-.14-.55-.22-.82-.35-1.39-.69-2.73-1.73-2.45-3.3.25-1.38,1.87-1.52,3.18-1.62,2-.61,3.86-1.43,6-1.17A18.93,18.93,0,0,1,176,37.29a1.21,1.21,0,0,1,.79,1.14c-.16,2.66-.72,5.14-3.17,6.74A29.76,29.76,0,0,0,169.44,46.82Z"/><path class="cls-36" d="M167.2,34.93c3.84-2,5.11-1.74,8.94,1.62l-.33.38c-2.84,0-5.5-1.27-8.35-1.29C167.13,35.64,167.16,35.22,167.2,34.93Z"/><path class="cls-37" d="M176.81,38.43l-.65-.68a.91.91,0,0,1-.24-1.14l.22-.06c3.07,1.44,6.75,1.37,10.08,4.11C182.46,40.45,179.86,38.43,176.81,38.43Z"/><path class="cls-38" d="M175.92,36.61l.24,1.14A68.65,68.65,0,0,0,166.52,36a.62.62,0,0,1,0-1l.67-.07Z"/><path class="cls-39" d="M166.53,35c0,.33,0,.66,0,1-2.07-.2-3.88,1.28-6,1a.65.65,0,0,1-.13-.94l.18-.11C162.53,35.27,164.45,34.59,166.53,35Z"/><path class="cls-40" d="M169.44,46.82a4.36,4.36,0,0,1,4.2-1.66L171,47Z"/><path class="cls-41" d="M160.42,36c0,.31.09.63.13.94-1,.5-2.82.29-2.72,1.71.08,1.11,1.3,2,2.52,2.68,2.85,1.56,6.2,2.43,8.09,5.43l0,.26a.67.67,0,0,1-.82-.19c-2.19-1.92-4.81-3.13-7.3-4.57-.17-.09-.39-.09-.56-.18-1.67-.77-3.63-2.15-3.58-3.58C156.26,36.68,158.67,36.36,160.42,36Z"/><path class="cls-42" d="M167.64,46.85l.82.19,1.64,1c-3.38-.42-5.85,2.36-9,2.55a.49.49,0,0,1-.16-.47c.05-.17.09-.25.14-.25Z"/><path class="cls-43" d="M154.72,52.87a17.7,17.7,0,0,1-6.14,2.62v-.72C150.66,54.26,152.43,52.71,154.72,52.87Z"/><path class="cls-44" d="M161,49.83c0,.24,0,.48,0,.72-.19.2-.37.4-.56.59-1.25-.16-2.2,1.65-3.6.56A8,8,0,0,1,161,49.83Z"/><path class="cls-45" d="M171.37,7.78c-2.22.78-.79,2.67-1.35,4.05.12-1.7-2.22-2.48-1.48-4.42a.35.35,0,0,0,.39,0c1.07.57,1.61-.43,2.35-.81A.79.79,0,0,1,171.37,7.78Z"/><path class="cls-46" d="M171.37,7.78l-.09-1.21c.92-.1,1.84.55,2.8,0C173.26,7.23,172.75,8.44,171.37,7.78Z"/><path class="cls-47" d="M33.57,111l0,2.51c-1.31,2.5-.58,5.33-1.32,7.92C31.58,128,31,134.51,30.19,141a1.82,1.82,0,0,0,.45,1.59c-.06.15-.18.31-.17.46.39,3.47.39,3.47-3.33,3.47-4.11,0-8.21-.06-12.32,0-1.79,0-2.45-.59-2.47-2.42-.14-13.21.61-26.4.68-39.6,0-4.72.2-9.49.32-14.23q.42-16.83.7-33.66c0-1.14-.37-2.27.29-3.34,1.89-1.11,3.64.18,5.46.3a16.15,16.15,0,0,1,3.11.8c3.65,1,7.37,1.82,11.07,2.64,1.58.35,3.2.57,4.37,1.87,1,3.11-.17,6.15-.32,9.22-.07,1.45-.29,2.92-.29,4.39-.16,6-1,11.89-1.63,17.83-.46,4.47-.73,9-1.47,13.41A27.11,27.11,0,0,0,33.57,111Z"/><path class="cls-47" d="M47.41,65.22c-1.14.8-1.1,1.8-.73,3C49.77,78.4,52.59,88.64,55,99c2.07,9.13,4,18.28,4.83,27.65.29,3.57.94,7.11.92,10.71,0,1.44.9,2.19,1.89,3,1.19.91.92,1.64-.39,2-4.39,1.26-8.78,2.52-13.2,3.69-1.49.39-2.37-.29-2.85-1.88-3.29-10.78-6.67-21.53-10-32.28A40.52,40.52,0,0,0,40.88,98c.94-7.92.77-15.74-2.51-23.22a8.88,8.88,0,0,1-.81-2.82c.47-4.2.48-8.46,1.52-12.59,1.82-1,3.53.28,5.31.26C45.39,61,45.2,63,46.9,64,46.13,64.81,47,64.93,47.41,65.22Z"/><path class="cls-48" d="M46.55,35.56c2.42-5.07,6.77-5.89,11.74-5.39,2,2.2,2.07,5,2.18,7.72A43,43,0,0,1,58.14,48a37.6,37.6,0,0,1-2.82,5.18,7.37,7.37,0,0,1-3.87,2.91c-2.4.77-4.71-.44-5-2.91-.37-3.23-1-6.65,2.22-9.07,1-.72.37-1.23,0-2C47.6,40.05,46.16,38.08,46.55,35.56Z"/><path class="cls-49" d="M38,72.13c5.57,12.43,5.67,24.87,0,37.3-.41.92-.66,2.08-1.88,2.42l-1.57-5.24a2.36,2.36,0,0,1-.56-2.53q1.44-14,2.86-28c.12-1.14.17-2.28.26-3.42C37.29,72.29,37.38,71.78,38,72.13Z"/><path class="cls-50" d="M46.55,35.56c1.34,2.24,1.09,5.23,3.57,7,.8.57-.14,1.4-.79,1.93-2.35,1.94-3.39,6.83-2,9.54,1,1.92,2.56,2.06,4.36,1.36,2-.76,3.06-2.38,4.08-4.08.66-1.11,1.23-2.28,1.85-3.42a.5.5,0,0,1,.64-.09c.12,3.66-3.63,8.53-7.1,9.22a4.84,4.84,0,0,1-5.75-4c-.17-.83.24-1.87-.81-2.4l-.29-.2a1.85,1.85,0,0,1-.26-.65,2,2,0,0,1,.19-1c1.41-1.63,1.72-4,4.06-5.23-1.43-.76-3.13-.19-4-1.54a1.11,1.11,0,0,1,.11-1c1.09-.57,2,0,2.86.21-1.51-2.75-2.21-6.11-4.06-9a2.37,2.37,0,0,1-.09-1.51,1.1,1.1,0,0,1,.49-.59A23.94,23.94,0,0,1,46.55,35.56Z"/><path class="cls-51" d="M35.56,12.4l-1,.94c-1.78-.87,0-1.64.07-2.46A4.74,4.74,0,0,0,35.37,9c.09-1.8.29-3.58-1.09-5.1a5.94,5.94,0,0,0-7.54-1.39c-2.89,1.67-4.51,5.34-3.58,8.15a12,12,0,0,1,.83,2,1.06,1.06,0,0,1-.25.66c-2.67-1.82-3.32-3.87-2.13-6.89.33-.83.78-1.62,1.17-2.42.59-.57,1.17-1.15,1.77-1.7,3-2.82,6.29-3.07,9.59-.74,2.77,1.95,3.62,5.28,2.25,8.77C36.12,11,35.84,11.72,35.56,12.4Z"/><path class="cls-52" d="M60.22,38a1.89,1.89,0,0,1-.49-1.58c.39-2.29-.55-4.27-1.44-6.26.33.23.88.39,1,.69,1.12,3.92,4.4,7,4.42,11.34A20,20,0,0,1,60.36,54a1,1,0,0,1-.49-.5c-.37-1.11.21-2,.58-3,1.18-3.16,2.08-6.37,1.36-9.79-.19-.92-.2-2-1.59-2.08a.37.37,0,0,1-.12-.39C60.14,38.08,60.18,38,60.22,38Z"/><path class="cls-53" d="M19.77,9.45c-.05.24-.07.67-.15.68-4,.61-4.69,3.75-5.37,7.07,3.28.1,5.89-.82,7.29-4.09-.13,3.38-2.71,4.26-5.25,5.19-1.73-.06-3.51.1-5.8-1.18,2.69,0,3.26-1.31,3.57-3C14.6,11,16.75,9.62,19.77,9.45Z"/><path class="cls-54" d="M7.92,29.57l5.9-4.89c.49-.16.62.13.67.53a6.19,6.19,0,0,1-2.28,2.48,45.85,45.85,0,0,0-9.39,10.6C1.18,40.87.76,43.42,3,45.94a1.64,1.64,0,0,1,.36,1.14,1,1,0,0,1-.37.59c-3.4-3.15-3.73-5.17-1.66-9.32C3,35,5.5,32.34,7.92,29.57Z"/><path class="cls-55" d="M30.64,142.62c-1.16,0-1-.84-1-1.55q1-9.56,2.06-19.1a2.29,2.29,0,0,1,.3-.66c.69.73,0,1.73.49,2.5Z"/><path class="cls-54" d="M60.14,53.1c.08.3.15.6.22.9a22.81,22.81,0,0,1-13,11.22l-1.17-.15.7-.88c3.91-2,7.75-4.12,10.41-7.83C58.18,55.2,58.62,53.67,60.14,53.1Z"/><path class="cls-56" d="M3,47.67,3,46.85c3.54,1.52,6.86,3.51,10.44,4.95a1.64,1.64,0,0,1,.49.49.68.68,0,0,1-.14.64A20.72,20.72,0,0,1,3,47.67Z"/><path class="cls-54" d="M32.53,123.81c-.76-.72-.21-1.69-.49-2.5l.6-6.45c.06-.63,0-1.34,1-1.36Z"/><path class="cls-57" d="M13.83,52.93l.11-.53a6.31,6.31,0,0,1,6,1.13.8.8,0,0,1-.16.76l-5.45-1Z"/><path class="cls-58" d="M34,104.08l.56,2.53c-.81,1.36-.33,3-1,4.38A16,16,0,0,1,34,104.08Z"/><path class="cls-59" d="M43.55,30.08l-.14.7c-1.79-.62-2.49-1.8-1.9-3.65l.92.63C42.8,28.54,43.18,29.31,43.55,30.08Z"/><path class="cls-60" d="M38.05,58.89c-4.6-1.09-9.21-2.16-13.81-3.28a7.35,7.35,0,0,1-1.5-.77,2.28,2.28,0,0,1,2-.69,66.24,66.24,0,0,0,11.59-1c2.5-.13,2.8.13,2.85,2.57a5.68,5.68,0,0,1-.36,2.85A.72.72,0,0,1,38.05,58.89Z"/><path class="cls-61" d="M38.05,58.89l.42-.17a.92.92,0,0,1,1.08-.06.48.48,0,0,1,0,.69c-.93,4.21-.93,8.53-1.51,12.78-.3.17-.59.35-.88.53-.33-3.75.83-7.37.91-11.09C38,60.68,38,59.79,38.05,58.89Z"/><path class="cls-62" d="M36.51,53.77a63,63,0,0,1-13.77,1.07l-2.95-.55c0-.22,0-.44,0-.65a4.4,4.4,0,0,1,2.81-.56,124.12,124.12,0,0,0,12.65-.36C35.82,52.88,36.52,52.89,36.51,53.77Z"/><path class="cls-63" d="M44.49,50.54c0,3-.07,6.07-.11,9.1-1.7,1.21-3.23-.42-4.87-.29,0-.19,0-.37,0-.56-1.51-4.46-.22-6.73,4.77-8.36Z"/><path class="cls-17" d="M60.25,38.57a29,29,0,0,1-2,9.32h-.61c.67-3,2.31-5.8,1.65-9-.11-.57.42-.8,1-.83Z"/><path class="cls-2" d="M54.31,34.42c0,.41-.17,1-1,.85a1.05,1.05,0,0,1-1-1.17.92.92,0,0,1,1.06-1C54.21,33.1,54.35,33.61,54.31,34.42Z"/><path class="cls-64" d="M50.18,37c-.64,0-.81-.4-.82-.93s.06-1.2.79-1.23a.93.93,0,0,1,1,1A1.07,1.07,0,0,1,50.18,37Z"/><path class="cls-1" d="M57.8,34.9c0,.48-.09,1-.69,1.09-.81.12-.9-.48-.91-1.06s0-1,.61-1.11S57.73,34.29,57.8,34.9Z"/><path class="cls-5" d="M35.48,53.23c-5.22,1-10.46.69-15.71.41-1.86-.79-3.9-.76-5.83-1.24a.61.61,0,0,0-.13-.22c-.81-.88-.68-2-.68-3q0-8.44,0-16.9a14.31,14.31,0,0,1,2.36-7.84,20.54,20.54,0,0,1,1.36-1.6c2-1.17,3.79-2.79,6.1-3.55,6.32-2.09,11.28.58,15.94,4.4a34.38,34.38,0,0,0,2.63,3.5v0a5.7,5.7,0,0,0,1.9,3.65l.18,1.28c1,2.93,2.48,5.81.86,9l0,1c1.25,2.36.92,4.72,0,7.08l-.13.68C41.84,52.2,38.76,53,35.48,53.23Z"/><path class="cls-65" d="M23.75,12.7C21.18,9.36,21.8,5.64,25.44,2.63a6.45,6.45,0,0,1,9.25.7c1.68,1.79,1.49,3.88,1.23,6-.18.58-1.41.58-.87,1.56.3.9-1.4,1.41-.48,2.43,0,1.17.21,2.38-.49,3.46-2,.77-3.68-.48-5.5-.82-.61-.11-1.2-.46-1.85-.54L26,13.89c-1-.41-1.08-1.3-1.05-2.18C24.86,12.51,25.22,13.5,23.75,12.7Z"/><path class="cls-66" d="M26.73,15.44c1.9-.48,3.47.83,5.26,1a16.77,16.77,0,0,1,2.09.41c.46.52.33,1.08-.32.94C31.36,17.2,28.76,17.17,26.73,15.44Z"/><path class="cls-59" d="M41.51,27.17a4.87,4.87,0,0,1-2.63-3.5A5.88,5.88,0,0,1,41.51,27.17Z"/><path class="cls-67" d="M16.84,22.82c-.08.49.12,1.08-.48,1.4s-1,1.28-2,1l-.51-.49C14.68,23.82,15.49,22.89,16.84,22.82Z"/><path class="cls-68" d="M23.75,12.7c1.34.26.57-1,1.19-1.52l1,2.71c-.84.22-1.45-.47-2.22-.56Z"/><path class="cls-69" d="M44.43,49.15a39.05,39.05,0,0,1,0-7.09c1.5.56,3.26,0,5.15,1.31C46.47,44.3,46.59,47.62,44.43,49.15Z"/><path class="cls-70" d="M44.45,41.05a55.4,55.4,0,0,0-.86-9c1.72,2.15,2.35,4.82,3.46,7.27.26.58.64,1.47.4,1.84-.45.68-1.33.24-2,.07C45.1,41.16,44.77,41.11,44.45,41.05Z"/><path class="cls-71" d="M35.48,53.23a44.31,44.31,0,0,0,8.82-3.4l0,.6c-.27.3-.49.81-.81.88-4.3.94-4,4.28-4,7.48l-1-.07c0-1.13,0-2.27.1-3.39.23-1.82-.57-2.09-2.06-1.56Z"/><path class="cls-72" d="M35.05,10.91c-.42.09-.89.66-1.27.08s0-.89.55-1.08l1.59-.56C35.74,9.93,35.64,10.56,35.05,10.91Z"/><path class="cls-73" d="M23.17,34.05c-.31,2.32-2.41,3-3.67,4.8,8.18,1.13,16.28,1.06,24.22,2.58-2.18,1.1-4.36,0-6.51-.08-5.53-.3-11.06-.85-16.59-1.33-.85-.07-2.11.39-2.43-.6s.9-1.42,1.51-2C20.83,36.25,22,35.16,23.17,34.05Z"/><path class="cls-74" d="M28.64,7.43c-1,1.33-1.38,2.72.08,4.66-2-.65-1.61-3.47-3.91-2.83,1.41-.6,1.9-2.76,3.87-1.79Z"/><circle class="cls-75" cx="98.38" cy="21.46" r="9.62"/></svg>