<svg id="Layer_1" data-name="Layer 1" xmlns="http://www.w3.org/2000/svg" viewBox="0 0 120.99 179.57"><defs><style>.cls-1{fill:#f06597;}.cls-2{fill:#eeeff1;}.cls-3{fill:#f06598;}.cls-4{fill:#0b0506;}.cls-5{fill:#f1f0f1;}.cls-6{fill:#a1a1a1;}.cls-7{fill:#5c5c5c;}.cls-8{fill:#f1cbd8;}.cls-9{fill:#f0cbd8;}.cls-10{fill:#8e8d8d;}.cls-11{fill:#949394;}.cls-12{fill:#999898;}.cls-13{fill:#999798;}.cls-14{fill:#eccfda;}.cls-15{fill:#7a7a7a;}.cls-16{fill:#767676;}.cls-17{fill:#eaadc3;}.cls-18{fill:#b8456b;}.cls-19{fill:#a6355a;}.cls-20{fill:#a8a7a9;}.cls-21{fill:#bd406a;}.cls-22{fill:#ee6a99;}.cls-23{fill:#edcfda;}.cls-24{fill:#a5a6a7;}.cls-25{fill:#9b9a9b;}.cls-26{fill:#7c7e7f;}.cls-27{fill:#7d7f80;}.cls-28{fill:#797979;}.cls-29{fill:#d3b8c3;}.cls-30{fill:#929293;}.cls-31{fill:#a8aaaa;}</style></defs><title>girl on computer</title><path class="cls-1" d="M45.66,178.79c-7.3,0-14.59.06-21.88.13-1.49,0-1.72-.53-1.69-2,.38-20.48.46-41,1-61.45C23.58,99.23,24,83,24.18,66.68c.67-1.52,2.05-1.33,3.34-1.39a11.55,11.55,0,0,1,3.61.82,5.58,5.58,0,0,1,1.56.92A12,12,0,0,0,37,70.8,20.42,20.42,0,0,0,51,73.3c2.45-.49,3.3.72,3.08,3.35C53.67,81.79,53.05,86.9,52.56,92c-.63,7.7-1.53,15.37-2.13,23.06-.33,4.25-1.93,8.33-1.44,12.66-.39,7.06-1.3,14.08-2,21.12-.8,7.83-1.33,15.69-2.56,23.47a5.56,5.56,0,0,0,.71,3.45C45.6,176.71,46.5,177.61,45.66,178.79Z"/><path class="cls-2" d="M31.27,66.55,27.74,66c-1.1-.68-2.54-.23-3.58-1.08a6.42,6.42,0,0,1-.64-3.78C23.65,52,23,42.81,24.67,33.72a1.27,1.27,0,0,0-.59-1.29.83.83,0,0,1,0-.82,29.87,29.87,0,0,1,6-3.09,32.49,32.49,0,0,0,8.47-5.94,20.91,20.91,0,0,1,17,8,19.21,19.21,0,0,1,3,4c1,4.62,3,8.94,4.75,13.32.51,1.28,1.08,2.53,1.61,3.81.56,1.48.42,2.65-1.4,3-5.24.78-10.62.49-15.78,1.94-2.32.41-3.12-.46-3-2.88.2-4.22.06-8.45,0-12.68-.13-.4-.68.11-.33-.08.12-.07.2,0,.22.2a106.23,106.23,0,0,1,.08,12.49c-.09,2.59.8,3.42,3.21,3,4-.87,8-1.79,12.18-1.12,1.09,1.26.79,2.8.85,4.26.09,2.47-.24,5,.52,7.39.27,1.32-.49,1.93-1.55,2.51-1.72,1-3.53,1.76-5.19,2.83a4.41,4.41,0,0,1-1,.19c-5-.18-9.6-2.29-14.5-3-1.66-.24-3.25-.89-4.91-1.17a2.22,2.22,0,0,1-1.53-1.11c-3.64-4.26-4.36-9.59-5.44-14.8-.05-4.74.13-9.49-.21-14.23-.21-.39-.44.25-.11,0,.13-.09.21,0,.22.2.2,4.68,0,9.37.09,14.05.85,4.13,1.43,8.35,3.57,12.11A2.12,2.12,0,0,1,31.27,66.55Z"/><path class="cls-3" d="M56,73.12c4.24.47,4.24.47,4.24,4.63q0,45.5,0,91c0,2.84.14,5.52,2,7.89.92,1.17,1.23,2.38-1.11,2.3-3.89-.12-7.78-.08-11.67-.11-.84-.86-.44-1.86-.3-2.83,1.63-11.43,2.63-22.85,1.9-34.47-.41-6.55-1.39-13-1.71-19.58.58-7.9,1.74-15.76,2.11-23.68,0-1.11.62-2.11.64-3.21.71-6.86,1.19-13.75,2.07-20.59a2.58,2.58,0,0,1,.35-1.12A1.2,1.2,0,0,1,56,73.12Z"/><path class="cls-4" d="M49.88,121.9a160.8,160.8,0,0,1-.46,56.92l-3.76,0c-2.56-3.42-1.92-7.16-1.48-11.06,1.5-13.28,2.72-26.59,4-39.88.4-1.15,0-2.35.24-3.48C48.67,123.43,48.46,122.17,49.88,121.9Z"/><path class="cls-5" d="M47.51,12v.63c0,2.79.24,5.62-.9,8.29-1.24,1.22-2.79.5-4.2.67a4.25,4.25,0,0,1-.86-.18,12.72,12.72,0,0,1-1.17-.58c-3.67-1-5.16-4-6.44-7.11-.27-.89-.37-1.75.53-2.38,3.05.5,3.05.5,3.5,2.07,0-3.48.82-4.1,4.45-3.5-.85-1.2-1.76-1.32-3-.32a12.46,12.46,0,0,1-2.78,1.72c-1,.43-1.71.49-2.27-.54C33.88,6.58,35.74,4.21,39.84,4a26.33,26.33,0,0,1,6.27.22c2,1,2.17,2.77,1.8,4.74C47.71,10,46.87,10.91,47.51,12Z"/><path class="cls-6" d="M99.79,52.28l-.09-50c0-1.17,0-2.24,1.65-2.24H121c-.61,1.6-1.75,1.14-2.6,1.15-4.89,0-9.79.14-14.68,0-2.27-.08-2.86.65-2.84,2.87.09,15.28,0,30.57,0,45.85,0,1,.39,2.21-.49,3.15C100,52.92,99.94,52.56,99.79,52.28Z"/><path class="cls-7" d="M74.6,78.66q0,38.09-.08,76.17c0,8-.08,16-.12,24-.21.27-.42.25-.62,0,0-7,.1-14,.11-21q0-37.92,0-75.85c0-1.09.06-2.19.1-3.29C74.18,78.44,74.38,78.41,74.6,78.66Z"/><path class="cls-8" d="M24.12,31.85c0,.19,0,.39,0,.58-4.7.52-9.29,2.19-14.08,1.79-2.89-.24-6,0-8.38-2.31-2-2-2.19-4.21-.37-6.29a21.79,21.79,0,0,0,3.69-6.07c.86-2.09,2.2-3.79,4.74-3.94.06.14.12.28.17.42-2.15,3.2-4.2,6.49-6.45,9.62C1,29,1.85,30.66,5.62,31.82c5.21,1.59,10,0,14.93-.94a5.54,5.54,0,0,1,2.94-.1C23.92,31,24.26,31.28,24.12,31.85Z"/><path class="cls-9" d="M9.68,15.61a14.15,14.15,0,0,0,3.16-5,6.11,6.11,0,0,1,4.67-3.83C24.36,5.22,30.94,2.64,38,1.63a10.55,10.55,0,0,1,6.6.77.61.61,0,0,1-.11.85c-.17.1-.36.25-.54.23C35.5,2.56,28,6.66,20,7.93a7.64,7.64,0,0,0-6.32,5.28c-.6,1.68-1.62,3.32-4,2.48Z"/><path class="cls-10" d="M74.6,78.66l-.6,0c5.32-6.17,11.4-11.6,17-17.47,2.89-3,5.84-6,8.76-8.95l.62.7C91.92,61.65,83.52,70.42,74.6,78.66Z"/><path class="cls-11" d="M73.31,71.46c5.28-4.63,8.36-11.62,15.35-14.64-.26-1.62-1.55-2.83-2.94-4,2.16.22,4.6,3.39,4.09,5.34-.06.26-.3.68-.44.68-5.38-.16-7.08,4.51-10,7.57C77.52,68.33,76.12,70.74,73.31,71.46Z"/><path class="cls-12" d="M82.45,52.87c-.91.37-1.81.75-2.73,1.1-1.66.66-2.7,1.45-1.73,3.55.54,1.14.66,2.86-1.53,2.39-3.44-.72-5.6,1.59-8,3.19a24.27,24.27,0,0,0-3.19,3.07,3.45,3.45,0,0,1-.85.07c-.58-1.91,1.07-2.66,2.06-3.55C69.17,60.27,72,58,76,57.65c.08-1.36-1.62-1.95-1.58-3.33l.26-.33a5.24,5.24,0,0,0,3.9-.46C79.69,53,80.94,51.75,82.45,52.87Z"/><path class="cls-13" d="M64.27,66l1,.13a12,12,0,0,0-1.48,1.46c-.67,1-2.89,1.05-2,2.74A5.65,5.65,0,0,0,66,73.32c2.79.51,4.87-1.34,7.34-1.86-3.28,3.64-7.81,4.06-11.19,1-2.5-2.23-3.65-2.11-6.15.64l-1.07.11a.74.74,0,0,1-.3-1.13c2.41-1.18,4.91-2.21,6.84-4.16C62.11,66.89,62.8,65.88,64.27,66Z"/><path class="cls-14" d="M44.51,3.08c0-.23,0-.45,0-.68a5,5,0,0,1,4,6.29c-.27,1.13-.69,2.22-1,3.34-1-.81-.48-1.71-.23-2.64.45-1.65.43-3.25-1-4.54C45.83,4.16,44.3,4.51,44.51,3.08Z"/><path class="cls-15" d="M73.78,178.82h.62c-3.36,1.58-6.84.22-10.28,0Z"/><path class="cls-16" d="M67.3,54.08a.83.83,0,0,1,0-.58c2.43.24,5-.77,7.31.49l-.14,0v.15A7.41,7.41,0,0,1,67.3,54.08Z"/><path class="cls-17" d="M24.16,64.92A4.07,4.07,0,0,1,27.74,66c-1.19.21-2.51-.3-3.56.68C24.17,66.09,24.16,65.51,24.16,64.92Z"/><path class="cls-18" d="M54.6,72.1l.3,1.13c-1,6.45-1.4,13-2,19.46A3.61,3.61,0,0,1,52.4,95c-.86-.89.05-2.14-.64-3.06.49-5.05.9-10.1,1.51-15.13.35-3,.23-3.16-2.66-2.63A18.15,18.15,0,0,1,36,70.93a1.43,1.43,0,0,1,.81-.53,2.46,2.46,0,0,1,1.45.13c5,2.42,10.34,2.06,15.66,1.73Z"/><path class="cls-19" d="M51.76,91.9c1,.85.33,2.06.64,3.06-1,9-2,17.93-2.52,26.94-1.64,1.68-.67,4.09-1.65,5.95-.67-4.22,1-8.22,1.25-12.36C50,107.61,51,99.76,51.76,91.9Z"/><path class="cls-20" d="M31.27,66.55A31.16,31.16,0,0,1,27.2,53.41c.2-.25.39-.22.55,0,1.35,2.25,1.12,4.93,2,7.31a43.92,43.92,0,0,0,3.29,6.58.63.63,0,0,1-.87-.07C31.79,67.18,31.37,67.07,31.27,66.55Z"/><path class="cls-21" d="M32.21,67.27l.87.07,1.17.6c1.22.63,2.59,1.12,2.61,2.84l-.89.15A7.53,7.53,0,0,1,32.21,67.27Z"/><path class="cls-22" d="M36.86,70.78l-2.61-2.84c5.2,1.15,10.41,2.23,15.57,3.51,1.35.33,2.71.58,4.07.81A22,22,0,0,1,36.86,70.78Z"/><path class="cls-23" d="M24.12,31.85l-.64-.63c-.19-.86.36-1.29,1-1.59,5.12-2.39,10-5.12,13.87-9.35a1,1,0,0,1,.55-.19,6.06,6.06,0,0,1,2.31.38l.31.58a2.8,2.8,0,0,0-3,1.81c-1.9,3.94-6.09,4.83-9.32,7A19.94,19.94,0,0,1,24.12,31.85Z"/><path class="cls-24" d="M65,54.79c-1.52.92-3.43,0-4.92,1.05-4.07-.17-8,.92-12.07,1.08-.15-.13-.19-.24-.11-.32a.24.24,0,0,1,.19-.12c2.16-1.61,4.76-1,7.16-1.34,2.83-.42,5.68-.67,8.52-1C64.13,54.52,64.85,54.13,65,54.79Z"/><path class="cls-25" d="M58.33,34.8l6.45,16.33a.94.94,0,0,1-.53.59Q61.13,44.16,58,36.6C57.74,36,57.47,35.26,58.33,34.8Z"/><path class="cls-26" d="M48.12,56.48a1.32,1.32,0,0,0-.08.44c-2.69.67-3.92,0-3.75-3.14.25-4.53.06-9.09.06-13.63h.81c0,4.37.19,8.76-.07,13.11C44.94,55.78,45.69,56.73,48.12,56.48Z"/><path class="cls-27" d="M27.75,53.45l-.55,0V38.49h.55Z"/><path class="cls-28" d="M64.25,51.72l.53-.59c.62,1.18.45,3.06,2.57,2.91-.61.74-1.51.61-2.32.75l-1.23-.64C66,53.72,64.09,52.53,64.25,51.72Z"/><path class="cls-29" d="M34.92,11.46c1.68.1,3-1.23,3.72-2.1,2.93-3.65,3.59-.51,5.09,1.33-1.78.18-3.46-1.38-4.72.18-1,1.22-.47,2.62.76,4.23-2.83-.22-2.4-3.87-4.84-3.64Z"/><path class="cls-30" d="M38.59,20.37c-2.37-1.47-4-3.41-4.18-6.34.29.05.81.07.82.15.48,3.55,3,5.14,6,6.29Z"/><path class="cls-31" d="M46.28,21.14c-.75,1.48-1.81,1.47-4-.05A8.21,8.21,0,0,1,46.28,21.14Z"/></svg>