<svg id="Layer_1" data-name="Layer 1" xmlns="http://www.w3.org/2000/svg" viewBox="0 0 317.21 369.32"><defs><style>.cls-1{fill:#ececec;}.cls-2{fill:#d45c7f;}.cls-3{fill:#fefdfd;}.cls-4{fill:#020202;}.cls-5{fill:#f16f91;}.cls-6{fill:#f16f90;}.cls-7{fill:#802d43;}.cls-8{fill:#4f4e4e;}.cls-9{fill:#494949;}.cls-10{fill:#464746;}.cls-11{fill:#632634;}.cls-12{fill:#515151;}.cls-13{fill:#4a4a4a;}.cls-14{fill:#4e4e4e;}.cls-15{fill:#4f4f4e;}.cls-16{fill:#464646;}.cls-17{fill:#4c4c4c;}.cls-18{fill:#4b4b4b;}.cls-19{fill:#5f3a41;}.cls-20{fill:#424242;}.cls-21{fill:#484848;}.cls-22{fill:#505050;}.cls-23{fill:#3f3e3e;}.cls-24{fill:#bb8396;}.cls-25{fill:#3e3e3e;}.cls-26{fill:#383838;}.cls-27{fill:#494948;}.cls-28{fill:#444;}.cls-29{fill:#464444;}.cls-30{fill:#5c5b5b;}.cls-31{fill:#f06597;}.cls-32{fill:#030202;}.cls-33{fill:#4b3236;}.cls-34{fill:#8b3248;}.cls-35{fill:#5f2935;}.cls-36{fill:#323232;}.cls-37{fill:#4c1d28;}.cls-38{fill:#dfaebb;}.cls-39{fill:#454545;}.cls-40{fill:#676666;}.cls-41{fill:#9f9e9e;}.cls-42{fill:#f5bbce;}.cls-43{fill:#edbbcd;}.cls-44{fill:#d55c7f;}.cls-45{fill:#4d4d4d;}.cls-46{fill:#f2eaed;}</style></defs><title>center illustration</title><path class="cls-1" d="M2.24,291.4l-.1-.71c-1.58-2.3-1.42-4.54-.18-7C8.77,270,15.5,256.33,21.44,242.28c5.43-12.83,10.25-25.9,15-39,4.62-12.92,9.21-25.86,14.5-38.53.34-.81.48-1.77,1.44-2.17,4.1.31,7.77,2.34,11.84,2.84a85.59,85.59,0,0,0,20.48.52,7.1,7.1,0,0,1,4-.57c3.91.43,7.69-.59,11.49-1.11a125.6,125.6,0,0,0,20.58-4.77c1-.32,2.29-1.1,3.14.43.37,4.28.08,8.57.09,12.85q.09,74,.05,148c0,2,.12,4-1.81,5.39l-.73-.06c-6.33-2.92-12.83-2.63-19.33-.84-3.86,1.06-7.67,2.26-11.55,3.22a8,8,0,0,1-1.44.24c-8.19,1.39-15.45-1.23-22.49-5.07-6-3.31-12.27-6.15-19.36-6.28-4,0-8-.14-12,0a25.77,25.77,0,0,1-18-6.19A51.84,51.84,0,0,1,2.24,291.4Z"/><path class="cls-1" d="M88.46,165.88a8.43,8.43,0,0,0-3.25.63c-8-.12-16.17.61-24.09-1.4-2.92-.75-6.09-1.06-8.4-3.4a2.92,2.92,0,0,1,.09-2.06c2.08-4.52,1.9-9.33,1.89-14.13,0-9.79-.15-19.59,0-29.38.11-5.78.28-11.6,2.08-17.18.5-2.6,2.45-4.25,4.08-6.08,2.5-2.81,5.42-5.24,7.89-8.1l.64-.56c11.84-7,23.37-5.09,34.75,1.23l1.2.94c1.55,1.9,4.35,1.92,5.89,3.85,3,4.24,6.41,8.09,8.72,12.84a44.22,44.22,0,0,1,4.2,17.92,111,111,0,0,1,0,11.68c-.16,2.45.8,4.7.73,7.09-8.38-.88-16.75-2-25.14-2.77-8.7-.81-17.39-1.67-26.09-2.31a21,21,0,0,0-4.49-.3c1.11.16,2.38-.16,3.6.21,16.77,1.48,33.54,2.84,50.23,5.09,3.25.44,6.56.38,9.74,1.34,1.21.37,2.34.79,2.46,2.24a2.51,2.51,0,0,1-1.75,2.55,8.28,8.28,0,0,0-5.2,5.7c-.72,2-.66,4.29-1.88,6.16-.27.44-.71.42-1.14.42a79.67,79.67,0,0,1-14.78,4.47A113.43,113.43,0,0,1,88.46,165.88Z"/><path class="cls-2" d="M255.61,343c-1.31,7.25-2.66,14.49-3.88,21.75-.33,2-1.29,2.39-3.06,2.13-3.15-.44-6.25-1.31-9.47-1.17l-.22-.1-.23,0c-2.6-.78-5.5.7-7.95-1.11l-.25-.1-.27,0c-1.6-.67-3.26,0-4.88-.22a5.15,5.15,0,0,1-3-.93l-.26-.09-.27,0c-2.1-.47-4.24.36-6.35-.26a7.56,7.56,0,0,1-2.73-1l-.21-.08-.2.07a4.87,4.87,0,0,0-.83-.23c-.84-.19-2.12.7-2.43-.74-.26-1.21.92-1.5,1.73-2l2.55-2.51c2.19-2.16,1.59-5,1.74-7.63a54.88,54.88,0,0,0-.19-9.84,6.73,6.73,0,0,1,.82-4.61c0-1.76.06-3.51.08-5.26a5.57,5.57,0,0,0,.24-2.94c-.37-5.95-.15-11.89,0-17.83,0-1.4,0-2.81.92-4l0-1.08c.8-4.31-.56-8.65.23-13,.24-1.34-.11-2.8.95-3.94l0-1.05c.72-3.31-.31-6.66.24-10,.19-1.17.12-2.37.92-3.36l0-1.05c.53-1.84.1-3.66,0-5.5a8.57,8.57,0,0,1,1-4.23c.06-1.14.11-2.28.17-3.41.59-1.94,0-3.91.19-5.86.13-1.16,0-2.37.89-3.35,0-.54.07-1.09.11-1.63.61-1.93,0-3.89.17-5.83.11-1.16.09-2.38.93-3.34l.09-1.06c.64-1.91,0-3.88.24-5.81a6.85,6.85,0,0,1,.93-3.34.35.35,0,0,0,0-.45c.66-2.1-.38-4.26.24-6.39.28-.92.22-2,1-2.7h0c.67-1.88-.25-3.83.26-5.73.26-.93.17-1.94,1-2.66h0c.47-2.4-.58-5.05,1.17-7.24l.06-1c.52-1.84-.49-4,1-5.61l.15-1.66c.78-2-.6-4.32,1.07-6.14l.12-1.08c.7-2.19-.5-4.7,1.16-6.72a.34.34,0,0,0,.05-.43c.49-2-.42-4.33,1.15-6.17a.34.34,0,0,0,0-.44c.44-2.23-.46-4.71,1.22-6.72h0c.37-2.25.25-4.55.77-6.78A10.71,10.71,0,0,1,235,158c.67-2.2.43-4.64,1.68-6.71,1.62-.93,3.16-.1,4.73.2,2.38,1.27,5.44.68,7.53,2.76a2.21,2.21,0,0,1-.24,1c-1.49,5.65-.94,11.48-1.41,17.21-1,12.5-1.06,25-1.41,37.57-.1,3.56-.39,7.14-.51,10.71-1.42,6.33-2.93,12.64-3.86,19.07a166,166,0,0,0-1.09,41.78,255.05,255.05,0,0,0,7.47,40.9,99.88,99.88,0,0,0,6.36,16.8A16.46,16.46,0,0,1,255.61,343Z"/><path class="cls-3" d="M278.83,53.18c-1,4.9-.51,9.87-.64,14.8,0,1,.44,2.34-1.29,2.49-2.75-.64-5.52-1.2-8.2-2.11-3.95-.94-7.85-2.11-11.82-3a5.32,5.32,0,0,0-2.62-.28c-2-3.91-1.63-7.94-.58-12-.34-2.57-1.7-4.83-2.32-7.32-.17-.67-.48-1.28-.62-2-.85-4.33.52-7.52,4.45-9.72,5.66-3.15,11.45-5,17.92-2.77a9.74,9.74,0,0,1,6.58,8.65,16,16,0,0,1-1.15,7.31c-.28.67-1.06,1.32-.37,2.18.54,1.17,2.08,2.17.68,3.7-1.56-1.24-.71,1.84-1.74,1.12C277.79,54.39,277.7,52.65,278.83,53.18Z"/><path class="cls-4" d="M2.24,291.4c2.88,3.52,4.81,7.68,7.74,11.19,5.39,6.47,11.29,12.14,20,13.63,4.56.78,9.16.12,13.74.12a11.76,11.76,0,0,1,3.55.21c1.43,2.15.7,4.57.82,6.88a43.31,43.31,0,0,1,0,5.58c-.08,2.79,0,5.58-.06,8.37,0,1.47-.2,2.86-2.12,3-3.24-1.35-6.65-2.39-9.66-4.12-5.85-3.34-10.85-7.83-15.66-12.53a10.92,10.92,0,0,1-3.37-3l-3.6-3.59a7,7,0,0,1-3-3.45,33.17,33.17,0,0,1-8.06-13.8C1.81,297.31,1.28,294.26,2.24,291.4Z"/><path class="cls-1" d="M101.81,55l.09,6.73c1.42,4.08-1.94,9.83-6.49,12-4.19,2-8.91,2.5-13.21,4.24a1.38,1.38,0,0,1-1.61-.46c-.68-4.49-.33-9-.41-13.5-.06-.58,1.35-1.08,0-1.77-1-.52-1.2-1.72-1.8-2.58a4,4,0,0,0,1.82-4c-.15-1.68,0-3.39,0-5.08A2.14,2.14,0,0,1,82,48c3.25-.82,6.44-2,9.73-2.55,3.86-.66,6.67,1.45,8.77,4.47a16.88,16.88,0,0,0,2,2.57c-1.36.69-2.72.15-4.07,0-1.68-.23-3.43-1.7-5,.43-.29.4-1.21.28-1.71,0-2.5-1.49-4.63-.54-6.78.83a2.3,2.3,0,0,0-1,1.72,15,15,0,0,1-.65,2.29c-.13.36-.39.66-.53,1a4.28,4.28,0,0,0,1-2.46c-.1-2.81,3.41-2.25,4-4.41.06-.22,1.06.29,1.63.41,1.8.38,3.69,2,5.33-.42.4-.57,1.08,0,1.64.15,2,.4,4,1.31,6.09.49.73.42.59,1.13.59,1.8-.08,0-.16.14-.25.15C98,55,98,55,98.43,60.18c.08,1,.32,2,0,2.5.51-1.44-.29-3.3-.25-5.16C98.26,54.5,98.53,54.29,101.81,55Z"/><path class="cls-4" d="M151.72,31.55A11,11,0,0,1,163,32a2.68,2.68,0,0,0,2.41.59,1,1,0,0,1,.06,1.36c2.47,3.57,2.47,7.39,1.17,11.34-.51.57-.21,1.47-.84,2a7.8,7.8,0,0,1-1.59,1.5,15.23,15.23,0,0,1-8.94,1.92c-2.94-.35-5.46-1.29-6.78-4.21-2.17-2.25-2.25-4.95-1.7-7.79a9.57,9.57,0,0,1,1.85-4.37C149.06,32.77,150.31,32.08,151.72,31.55Z"/><path class="cls-5" d="M182.2,19.5a1,1,0,0,0-.51-.2,2,2,0,0,1-1.14-1,14.9,14.9,0,0,1-1.9-8.81c1-5.26,3.8-8.07,8.43-8.49h4a5.08,5.08,0,0,1,4.24,1.84l0,0c3.68,2.21,5.47,5.57,4.75,9.71s-2.39,7.77-7.12,8.78l0,0C189,23.12,185.41,22.44,182.2,19.5Z"/><path class="cls-6" d="M199,65.17l2.24,3c1.48,1,1.15,2.54,1,4-.57,4.88-2.66,8.59-7.58,10.36a10,10,0,0,1-13-7.34c-.18-1-.53-1.91-.67-2.89a1.16,1.16,0,0,0,.08-.42,19.4,19.4,0,0,1,1.9-6,5.41,5.41,0,0,1,1.11-1.18c.45-.56,1.18-.49,1.76-.75h0c1.14-1.9,3.19-1.35,4.86-1.81h2.2C195.3,62.4,197.57,62.91,199,65.17Z"/><path class="cls-7" d="M90.32,327.86c7.41-2.08,14.58-5.23,22.55-4.72a55.94,55.94,0,0,1,7.62,1.32c.94.19,1.48.55,1,1.59l-.54.51a1.21,1.21,0,0,1-.67.59c-3.91.93-7.34,3-10.85,4.8-5.19,2.74-10.37,5.51-16.19,6.63-1.42.28-3,1.21-4.39-.36.08-2.33.19-4.67.16-7C89,329.92,89.09,328.67,90.32,327.86Z"/><path class="cls-3" d="M122.2,326.11c1.26-2.05,1.21-4.31,1.21-6.61q0-72.58-.07-145.18c0-4.95.14-9.9.07-14.85.33-.85.84-1.31,1.78-.79-.81,1.38-.59,2.9-.59,4.39V321.72C124.6,323.63,124.89,325.68,122.2,326.11Z"/><path class="cls-3" d="M121,357.28c1.72,2.39,4.44,4.07,5.37,7,.84,2.61-.41,4.45-3.06,4.95a11.18,11.18,0,0,1-2.09.1q-35,0-70.09,0c-1.71,0-3.84.44-4-2.34a2.15,2.15,0,0,1,1-.67A3.87,3.87,0,0,1,49.3,366c13.62-.08,27.25-.25,40.86.08a5,5,0,0,0,2.47.19c9-.56,17.93-.14,26.9-.25,5-.06,5,0,2.48-4.5-.68-1.19-1.56-2.34-1.28-3.87Z"/><path class="cls-3" d="M52,162.9c-1,4.58-3.35,8.69-4.9,13.08-4.21,11.91-8.71,23.71-13,35.58-7.18,19.74-15,39.21-24.56,58-2,3.9-3.64,8-5.69,11.85-1.59,3-2.87,5.9-1.68,9.32-3-1.8-2.32-4.19-1.09-6.7,3.45-7.08,6.87-14.17,10.33-21.24a512.33,512.33,0,0,0,20-47.87c6.08-16.51,11.71-33.18,18.41-49.46.41-1,.66-2.07,1-3.12C51.43,162,51.76,162.36,52,162.9Z"/><path class="cls-8" d="M125.25,96.22c-.74-5.16-2.53-10.1-3.06-15.33-.22-2.25,0-4.57-.64-6.78a6.57,6.57,0,0,1,0-6.6c.35-2.8.5-5.65,1.93-8.2.45-2.8,2.51-4,4.87-5l9.46-6.78c.85-.77,1.54-2,3-1,.94,1.37-.07,2.72,0,4.08-.54,1.94-2.18,3.19-3,4.93a8.16,8.16,0,0,1,.65,8c-.84,1.88-.4,3.25.53,4.94,5.68,10.37,10.33,21.16,12.94,32.75.6,2.68,1,5.4,1.49,8.1-.25.6-.7.53-1.17.36-1.44-3.93-1.72-8.14-2.88-12.16a139.51,139.51,0,0,0-11.93-28.37,6.6,6.6,0,0,1-.66-6,6.64,6.64,0,0,0-.33-6.32c-.94-1.48-.52-2.84.51-4.13a5.92,5.92,0,0,0,1.68-2.94c-3.87,3-8.47,4.92-11.91,8.42-2.38,2.43-2.92,5.78-3.07,9.17-.42,9,.93,17.71,3,26.38a13.34,13.34,0,0,1,.71,4.11,1.41,1.41,0,0,1-.89,1C124.64,98.57,125.68,97.08,125.25,96.22Z"/><path class="cls-9" d="M127.79,151.54c.3-2.8,1-5.19,4.33-5.91,1.14-.24,2.77-1,2.57-2.49s-2.08-1.43-3.19-1.6c-7.56-1.15-15.14-2.29-22.75-3.09-11.78-1.23-23.59-2.18-35.39-3.27a5.21,5.21,0,0,1-1.12-.36c.09-.39.48-.43.74-.62,11.48,1.05,23,2.06,34.44,3.18,5.93.57,11.85,1.33,17.77,2a15.73,15.73,0,0,1,9.5,1.6c2,.92,2.14,2.73.64,4.44-1,1.19-2.56,1.69-4.08,2.64,11.75-3.72,20.5-15.58,20.77-27.91,0-2-.05-4,0-6,.21-.72.12-1.69,1.31-1.61,1.21,5.08.22,10-.95,14.94-2.75,11.63-10.91,18.29-21.32,22.72-1.16.5-1.84,1.45-2.9,1.93A.71.71,0,0,1,127.79,151.54Z"/><path class="cls-10" d="M184,95c3.68.84,6.64,3.3,10.16,4.56,1.39.51.51,2.36.45,3.59-.68,14,0,27.75,5.09,40.95,2.91,7.59,7.35,13.93,15.7,16.47a23.5,23.5,0,0,0,10.64.59c.35.32.93.08,1.23.53l-1.25.55c-2.79,1.14-5.6.49-8.4,0-7.53-1.35-12.9-5.67-16.46-12.29a48.73,48.73,0,0,1-5.93-18.66c-.15-1.67-1.29-3.24-1-5.06-1.27-1.77.4-3.82-.53-5.63l-.18-4.59a79.85,79.85,0,0,1,0-12c.64-2.4,0-4-2.55-4.86S185.46,97.81,184,95Z"/><path class="cls-3" d="M80.79,63.37l0,14.38c1.17.92,2.41-1,3.58.08,1.52,2.11,3.94,1,5.9,1.6,4.93,1.38,10,2.23,13.88,6-2.41.06-4.27-1.48-6.35-2.3-8.72-3.45-17.31-3.67-25.85.48a3.77,3.77,0,0,1-2.55.59c2-2.49,4.82-3.36,7.7-4.06,1.89-.46,2.84-1,2.55-3.32-.47-3.71.36-7.51-.64-11.22a3.86,3.86,0,0,1,.66-2.54A.88.88,0,0,1,80.79,63.37Z"/><path class="cls-3" d="M242.8,85.51c1-4,4.24-6.07,7.15-8.32,5.54-4.29,12-6.07,18.95-6.1,1,0,2.32.54,2.7-1.09.79-.57,1.53-.91,1.81.48,0,1.08.84,1.08,1.63,1.31a63.77,63.77,0,0,1,12,4.94c1.41.75,2.82,1.5,3.15,3.28a.84.84,0,0,1-.83.25c-3.51-1.69-6.92-3.58-10.57-5a29.43,29.43,0,0,0-32.92,8.39,6.88,6.88,0,0,1-2.21,2A.83.83,0,0,1,242.8,85.51Z"/><path class="cls-11" d="M304.54,179.6l-.62,1.15c-1.26,3.22-3.48,5.81-5.65,8.42-1.22,1.47-1.89,2.79-.21,4.38.55.53,1.25,1.4.58,2.09-.86.89-1.62-.11-2.26-.62-7.25-5.81-14.28-11.87-21.39-17.83a25.68,25.68,0,0,1-4-3.55c-.37-.46-.84-1-.46-1.6.5-.76,1.25-.38,1.89-.12a8.49,8.49,0,0,1,2.36,1.81,16.15,16.15,0,0,0,4,3c1.58-4.64,2.38-9.27,3.82-13.71a2.81,2.81,0,0,1,1-1.43.85.85,0,0,1,.83.23,2.79,2.79,0,0,1,.28,2.17c-1.06,3.94-1.86,7.95-3.11,11.84a4.08,4.08,0,0,0,1.48,5c3.17,2.41,6.21,5,9.15,7.68,1.54,1.4,2.6,1.35,3.86-.37,2-2.73,4.11-5.38,5.94-8.23.69-1.07,1.27-2.3,2.63-2.75.46.09.89.2.52.82Z"/><path class="cls-9" d="M68.79,84.78c1.46,1-.09,1.32-.46,1.67A91.21,91.21,0,0,0,57.44,98.13c-.43,2-1.85,3.5-3,5.12a71.74,71.74,0,0,0-12.33,30.42,5.29,5.29,0,0,1-.82,2.83c-.55.16-.92.1-.74-.62-1.84-2.19.34-4.13.55-6.14.67-6.28,3.08-12.16,5.83-17.77a85.83,85.83,0,0,1,7.67-12.32A81.36,81.36,0,0,1,66,86.8,7.37,7.37,0,0,1,68.79,84.78Z"/><path class="cls-12" d="M40.58,135.88l.51.62c1.32,1.18.84,2.77.9,4.2.12,3.16-.26,6.36.8,9.45a16.79,16.79,0,0,0,7.42,9.37c1.09.65,2.35,1.13,2.92,2.42,9.06,4.22,18.73,4.24,28.42,4.1,1.22,0,2.58-.73,3.66.47-5.1,1.16-10.23.63-15.36.36a61,61,0,0,1-17.85-4l-1.2-.6c-5.43-2.83-8.68-7.35-10.54-13.11a5.5,5.5,0,0,1-.07-3.42C41.49,142.45,39.42,139.11,40.58,135.88Z"/><path class="cls-13" d="M289.59,80l.61,0c18.09,17.37,28.21,38.11,26.89,63.67-.9,0-1-.71-1.19-1.34-.17-10.8-1.69-21.33-5.92-31.39-1.16-2.76-2.9-5.2-4.05-8-3.83-7.9-9.33-14.56-15.5-20.71C289.3,81.17,289.3,81.17,289.59,80Z"/><path class="cls-14" d="M278.17,49.43c-.33.2-.74.64-.95.55-.71-.29-.24-.78,0-1.17a14.64,14.64,0,0,0,2.14-7.05c.11-6.22-3.63-10.36-9.94-10.76A21.89,21.89,0,0,0,255,34.92c-4,2.82-4.73,4.67-3.53,9.38a44.92,44.92,0,0,0,3.05,8.07c.55,1.17.31,1.52-.85.71a37.6,37.6,0,0,1-3.52-10.72c-.89-5.09.93-6.68,6.13-9.54a30.23,30.23,0,0,1,7.52-2.62,31.26,31.26,0,0,1,7.17,0l4.16,1.36c1.25.48,2.67.76,2.9,2.45C281.21,39.1,280.46,44.26,278.17,49.43Z"/><path class="cls-15" d="M237.88,95.05a89.15,89.15,0,0,0-7.74,15.09c-2.19,5.1-4,10.35-5.86,16.34-1.7-2.73-3.32-4.72-3.7-7.41a.94.94,0,0,1,.29.06c1.39.91,1.07,3.83,3.09,3.48,1.59-.28,1-2.7,1.69-4.1,1.5-3,2.45-6.34,3.76-9.48a96.82,96.82,0,0,1,11-20.09c.54,0,.78.29.89.76A9.28,9.28,0,0,1,237.88,95.05Z"/><path class="cls-16" d="M79.72,43.83c-1,.48-1.53,3-3.11.63a.33.33,0,0,0-.6.21c.19,2.62-2.42,2.92-3.61,4.38,2.32,1.29.31,2.72,0,4A33.25,33.25,0,0,0,71.21,61c.12,4.94,1.73,7.27,6.89,9.69a5.41,5.41,0,0,1-5.85-2.53c-2.14-3.64-2.07-7.56-1.83-11.71.13-2.32,3.43-4.66.26-7.2-.7-.57.8-1.67,1.12-1.73,2.37-.5,3-2.34,3.5-4.22.38-1.28,1.36-1.4,1.82-.48,1,2,1.64.26,2.43,0A.84.84,0,0,1,79.72,43.83Z"/><path class="cls-17" d="M84.4,77.83c-1.18-.55-2.43,1.64-3.58-.08,3.43-1,6.86-2,10.3-3,7.44-2.09,10.24-5.46,10.78-13,2.29,1.16-.21,3.1.85,4.59A28.66,28.66,0,0,0,112.2,60c1.76-1.77,2.14-3.46,0-5.24a6.83,6.83,0,0,1-1-1.44l.23-.28c4.36,3.69,4.28,4.25.55,8.3a26.73,26.73,0,0,1-8.64,5.77,5.94,5.94,0,0,0-2.74,2.47c-2.14,3.64-5.68,5.22-9.54,6.3C88.85,76.53,86.63,77.18,84.4,77.83Z"/><path class="cls-18" d="M220.63,119.14c-1.28-.14-1.26-1.39-1.68-2.16-4.64-8.34-9.07-16.8-14.42-24.73-1.33-2-2.67-4.27-5.09-1-.39.54-1.1.38-1.68.29L191,90.43c.1-.4.48-.44.76-.61,3,.15,5.85,1.38,8.87-.63,1.72-1.14,3.35.59,4.36,2.13,2.11,3.24,4.27,6.46,6.12,9.86C214.36,107.13,218.22,112.76,220.63,119.14Z"/><path class="cls-19" d="M181,72.3c.88.35,1,1.13,1.15,1.94,1.12,5.37,4.8,8.37,10.05,8.22,4.83-.14,8.48-3.68,9.22-8.9a7.12,7.12,0,0,1,.5-1.35c.39-.23.59-.12.61.32-1.27,7.25-4.61,10.58-11,11a10,10,0,0,1-10.36-7.78C181,74.7,179.31,73.48,181,72.3Z"/><path class="cls-3" d="M217,304.51c0,8.27-.46,16.51-1.17,24.75-.33-3.52,0-7-1-10.57-1.14-4.06.53-8.42.59-12.68A1.55,1.55,0,0,1,217,304.51Z"/><path class="cls-20" d="M184.52,65.28l-1.06.51c-1.1.26-1.05-1.13-1.86-1.28l-6.91-6.69a7.33,7.33,0,0,1-3.89-3.42c-2.52-1.5-3.72-4.56-6.63-5.6a1.77,1.77,0,0,1,1.15-1.71c1.15.12,1.36,1.14,1.85,1.9a19,19,0,0,0,4.29,4.1c2.31,1,3.85,2.91,5.32,4.87a25.55,25.55,0,0,0,5.31,5A2.61,2.61,0,0,1,184.52,65.28Z"/><path class="cls-21" d="M125.19,158.68l-1.78.79c-10.66,3.67-21.69,5.62-32.84,6.94-.73.08-1.61.47-2.11-.53,8.71-1.33,17.46-2.42,26-4.79l10.8-3C125.23,158.29,125.21,158.48,125.19,158.68Z"/><path class="cls-3" d="M193,21.27c5.78-4,7.33-7.32,6.06-12.87-.54-2.36-2.3-3.85-3.69-5.62a9.45,9.45,0,0,1,6.07,7.89c.11,3.91-2.47,6.68-4.29,9.74C196.21,21.9,194.4,21.21,193,21.27Z"/><path class="cls-22" d="M316.47,142.28l.62,1.4A76.3,76.3,0,0,1,305.17,178l-.5-.53a1,1,0,0,1-.26-.88c3.82-7.46,7.78-14.86,9.43-23.22a79.5,79.5,0,0,0,1.38-8.26C315.31,144,315.12,142.78,316.47,142.28Z"/><path class="cls-23" d="M180.55,18.26c.62.08,1.14.28,1.14,1L165.43,34l-.06-1.36c4.37-4.82,9.56-8.75,14.22-13.25C179.94,19,180.23,18.63,180.55,18.26Z"/><path class="cls-3" d="M215.77,334.52c0,6.24-.06,12.48-.05,18.72a3.19,3.19,0,0,1-2.32,3.36c1-5.58,1.79-11.15.73-16.84C213.77,337.87,213.4,335.68,215.77,334.52Z"/><path class="cls-3" d="M218.23,286.51a119.68,119.68,0,0,1-1.18,16.92,45.33,45.33,0,0,0-1-6.88c-.68-2.8.2-6,.51-9C216.69,286.79,217.5,286.56,218.23,286.51Z"/><path class="cls-21" d="M79.72,43.83l-.17-1c7.66-4.69,17.84-3.61,23.37,2.74C95.46,40.56,87.82,38.48,79.72,43.83Z"/><path class="cls-24" d="M47.85,366.89l-.66.06,0,0c-.57-7.62-.09-15.26-.27-22.88,0-1.17.32-2.38-.3-3.5l-.7-.17a2.88,2.88,0,0,0,1.32-2.61c-.1-2.85.07-5.71.13-8.56,1.13-.57,1.26.21,1.38,1,.06,11,0,22,0,33C48.73,364.48,48.79,365.81,47.85,366.89Z"/><path class="cls-3" d="M182.2,19.5c3.35,2.05,7,2.3,10.78,1.75-1,3-3.61,2.95-5.67,2.27S183,22,182.2,19.5Z"/><path class="cls-3" d="M187.08,1a13.06,13.06,0,0,0-8.43,8.49,6.77,6.77,0,0,1,2.36-7C182.68,1,184.57-.53,187.08,1Z"/><path class="cls-3" d="M120.43,326.76a3.07,3.07,0,0,1,.5-.2l.09,30.72-.16.13c-1.34-.47-1.34-1.68-1.35-2.74q-.18-12.74,0-25.47A3,3,0,0,1,120.43,326.76Z"/><path class="cls-3" d="M219.41,272.11a72,72,0,0,1-1.16,13.35c.52-3.5-1.87-6.79-.7-10.39C218,273.87,217.72,272.44,219.41,272.11Z"/><path class="cls-18" d="M254.26,65.09c-.29-1.17.22-1.06,1.09-.81,4.49,1.27,9,2.47,13.49,3.69-.11.43-.49.45-.81.57A90.65,90.65,0,0,1,254.26,65.09Z"/><path class="cls-22" d="M110.84,90.29c-1.58-1.64-4.48-1.42-5.46-3.9a79.17,79.17,0,0,1,15,8.72,1,1,0,0,1-.87.84A22.22,22.22,0,0,1,110.84,90.29Z"/><path class="cls-3" d="M46.59,340.53c1,.87.53,2.05.53,3.07.05,7.77,0,15.54,0,23.31-.92-.9-.54-2.06-.54-3.11C46.58,356,46.59,348.28,46.59,340.53Z"/><path class="cls-3" d="M212.79,362.05a33.58,33.58,0,0,1,9.08,1.23c-2.22.24-4.2,2.13-6.7.76A4.68,4.68,0,0,1,212.79,362.05Z"/><path class="cls-25" d="M101.81,55c-2.48-.62-3.43.27-3,2.83.21,1.37,0,2.79.09,4.17.19,1.89-.7,2.44-3,2.36,3-1.46,2.06-3.65,2-5.58-.23-5.18-.18-5.26,5.16-4.5C102.89,55,102.25,54.87,101.81,55Z"/><path class="cls-3" d="M221.75,248.71a32.53,32.53,0,0,1-1.08,9.21,18,18,0,0,0-.81-4.94C219.29,251.34,219.05,249.21,221.75,248.71Z"/><path class="cls-3" d="M225.46,218.16a31.77,31.77,0,0,1-1.21,9.09c0-2.29-1.75-4.37-.67-6.81C224,219.46,224,218.24,225.46,218.16Z"/><path class="cls-3" d="M226.66,209.76a25.17,25.17,0,0,1-1.22,8.39c.05-2.21-1.66-4.17-.7-6.57C225.16,210.54,225.42,209.75,226.66,209.76Z"/><path class="cls-26" d="M191.78,89.82l-.76.61c-1.18,0-2.36,0-3.53,0-4,.07-4.41.44-4.05,4.08-2.63-2.94-2.35-3.8,1.21-4.79C187.09,89.05,189.4,89.74,191.78,89.82Z"/><path class="cls-3" d="M223,237.91a34.62,34.62,0,0,1-1.1,9.17c-.26-1.68,0-3.35-.76-5.1C220.53,240.69,220.55,238.44,223,237.91Z"/><path class="cls-3" d="M230.8,364.54a24.12,24.12,0,0,1,7.95,1.11,9.21,9.21,0,0,0-3.67.73C233.12,367.46,231.51,366.82,230.8,364.54Z"/><path class="cls-27" d="M119.73,95.85l.66-.74,2.9,1.84c1.26.24,1.76,1.67,3,1.91l.53-.74a2.38,2.38,0,0,1,1.19,2.25c0,1.51-.93,2.2-2.07,1.27C123.77,99.86,121.36,98.27,119.73,95.85Z"/><path class="cls-3" d="M220.5,261.33a49.79,49.79,0,0,1-1.05,9.73,17.87,17.87,0,0,0-.8-5.52C218,263.92,218.87,262.29,220.5,261.33Z"/><path class="cls-3" d="M235,159.75a13.08,13.08,0,0,1-1.16,6.81c-.22-1.36-.53-2.71-.64-4.07s-.88-1.39-1.83-1.39A3.15,3.15,0,0,1,235,159.75Z"/><path class="cls-3" d="M121.54,67.51q0,3.3,0,6.6C119,72.18,119,69.44,121.54,67.51Z"/><path class="cls-3" d="M224.22,227.7a33.25,33.25,0,0,1-1.17,9.15,25.76,25.76,0,0,0-.49-4.35C222.12,230.69,222,228.73,224.22,227.7Z"/><path class="cls-3" d="M222.4,363.32a24.52,24.52,0,0,1,7.88,1.16,11.79,11.79,0,0,0-4,.72C224.56,365.79,222.9,365.53,222.4,363.32Z"/><path class="cls-3" d="M227.81,202.51a21.46,21.46,0,0,1-1.17,7.24c.19-1.83-1.71-3.32-.72-5.39C226.38,203.4,226.62,202.57,227.81,202.51Z"/><path class="cls-28" d="M268,68.54l.81-.57c2.71.77,5.68.7,8.06,2.5h-3.49c-.42-.87-1.1-.71-1.81-.48Z"/><path class="cls-3" d="M217.6,162.32l8.4,0c-.71,1.41-1.64,2.17-3.22,1.13a2.49,2.49,0,0,0-2.49-.1A1.92,1.92,0,0,1,217.6,162.32Z"/><path class="cls-3" d="M233.88,166.55a18,18,0,0,1-1.22,6.72C232.2,170.87,230.35,168.22,233.88,166.55Z"/><path class="cls-3" d="M193.48,104.11v12c-1.2-3.71.15-7.64-.89-11.38C192.56,104.6,193.17,104.31,193.48,104.11Z"/><path class="cls-3" d="M231.41,180.31a18.27,18.27,0,0,1-1.16,6.71,34.59,34.59,0,0,1-.6-3.76C229.57,182,229.74,180.64,231.41,180.31Z"/><path class="cls-3" d="M210.85,359.11l-1.36,1.82c.79,1,2.15.26,2.89,1.11a4.11,4.11,0,0,0-1.18.14c-1.5.64-2.85.66-3-1.31S209.59,359.17,210.85,359.11Z"/><path class="cls-3" d="M181.6,64.51c1-.11,1.23.87,1.86,1.28l-2.4,6.09c0-1.69-.48-3.41.9-4.93C182.6,66.25,182,65.3,181.6,64.51Z"/><path class="cls-3" d="M232.61,173.71a16.32,16.32,0,0,1-1.15,6.17C231.58,177.77,229.19,175.2,232.61,173.71Z"/><path class="cls-3" d="M199,65.17a23.91,23.91,0,0,0-6.07-3C195.64,61.7,198.25,61.55,199,65.17Z"/><path class="cls-3" d="M128.34,54.36a16,16,0,0,0-4.87,5C123.52,56,124.72,54.78,128.34,54.36Z"/><path class="cls-1" d="M241.12,89.69l-.71-.75,2.39-3.43h.59c1.85.14,2,1.18,1,2.31A4.85,4.85,0,0,1,241.12,89.69Z"/><path class="cls-29" d="M235,159.75l-3.63,1.35c-1.46-.32-2.71.74-4.13.63L226,161.2a65,65,0,0,0,9.5-2.56Z"/><path class="cls-21" d="M111.22,53.34,105.88,48c2.46,1.06,4.64,2.42,5.57,5.08A1,1,0,0,0,111.22,53.34Z"/><path class="cls-3" d="M230.13,188.11a18.57,18.57,0,0,1-1.07,6.14,13.68,13.68,0,0,0-.44-3.4C228.13,189.49,228.41,188.35,230.13,188.11Z"/><path class="cls-3" d="M228.91,195.91a14.77,14.77,0,0,1-1,5.61c-.22-1-.49-2.06-.63-3.1C227.08,197.15,227.35,196.08,228.91,195.91Z"/><path class="cls-3" d="M195.35,2.8,191.11,1C193.76-1.27,194.54.81,195.35,2.8Z"/><path class="cls-3" d="M146.75,38.72a13.67,13.67,0,0,0,1.7,7.79C146.14,45,145.56,42.32,146.75,38.72Z"/><path class="cls-3" d="M190.69,62.14,185.83,64C186.33,60.34,188.83,62.11,190.69,62.14Z"/><path class="cls-30" d="M80.79,63.37l-1.09-.29c-.34-1.15-1.62-1.94-1.29-3.35,1.52.41,1.54,2.68,3.39,2.73a.41.41,0,0,1,.12.79A3.17,3.17,0,0,1,80.79,63.37Z"/><path class="cls-3" d="M176.78,58l-5.32-4.87C174.28,53.58,175.76,55.52,176.78,58Z"/><path class="cls-3" d="M202.51,72.53l-.61-.32-.69-4C204.74,68.7,202.58,70.93,202.51,72.53Z"/><path class="cls-3" d="M170.8,54.4a12.87,12.87,0,0,1,3.89,3.42C172.58,57.6,170.87,56.93,170.8,54.4Z"/><path class="cls-3" d="M137.72,55.54c.13-2.19,2.25-3.15,3-4.93A6.42,6.42,0,0,1,137.72,55.54Z"/><path class="cls-3" d="M184.52,65.28,182.09,63c1.61-1.06,2.47.74,3.74,1Z"/><path class="cls-3" d="M10.6,313.66a8.55,8.55,0,0,1,3,3.45C11.63,316.81,10.31,315.94,10.6,313.66Z"/><path class="cls-3" d="M271,30.17l-7.17,0A11.49,11.49,0,0,1,271,30.17Z"/><path class="cls-20" d="M127.79,151.54l.42.6c-.13,2-.08,4.07-1.84,5.54C126.84,155.63,127.31,153.59,127.79,151.54Z"/><path class="cls-3" d="M17.2,320.7c1.6.46,2.43,1.8,3.37,3A3.41,3.41,0,0,1,17.2,320.7Z"/><path class="cls-3" d="M126.31,98.86c-1.3-.1-1.3-.1-3-1.91.72-.06,1.51.06,2-.73C125.6,97.1,126,98,126.31,98.86Z"/><path class="cls-3" d="M278,34l-2.9-2.45C276.83,31.49,278.59,31.37,278,34Z"/><path class="cls-3" d="M167.17,49a4,4,0,0,1-1.85-1.9l1.28-1.78C166.81,46.53,167.43,47.69,167.17,49Z"/><path class="cls-3" d="M140.79,46.53c-1.27-.43-1.9,1-3,1C138.45,46.24,138.81,44.06,140.79,46.53Z"/><path class="cls-3" d="M151.72,31.55l-3.12,2.8C148.64,32.3,149.72,31.42,151.72,31.55Z"/><path class="cls-31" d="M283,163.21c-.62,2.51-1.24,5-1.88,7.52s-1.25,4.82-2,7.56l-8-6.57-.62.76L298.44,196c0-.73.17-1.1.05-1.24-2.88-3.25-2.86-3.23-.17-6.65,1.9-2.42,3.74-4.9,5.6-7.36-.22,7.18-.21,14.37-.7,21.53-.89,12.87-.82,25.75-1.16,38.62-1,36-1.06,71.92-.88,107.89,0,5.29.2,10.58.36,15.87,0,1.51-.2,2.43-2.07,2.42-13.09-.06-26.18,0-39.27-.06a2.5,2.5,0,0,1-.77-.26c.66-3.48,5.87-5.45,3.12-9.92-2.33-6.29-3.61-12.91-6.13-19.13a350,350,0,0,1-6.81-36.78c-1.59-11.57-2.33-23.22-3.36-34.84-.48-5.46-.47-11-.66-16.44-.4-12-1.13-23.91-.37-35.88a18.87,18.87,0,0,0,.59-5.6c-.33-9.74.44-19.47.79-29.19a226.27,226.27,0,0,1,1.61-22.78,3.06,3.06,0,0,1,.56-1.66l.11,0c1-.87,2.05-.29,3.08-.06,1.55.59,3.26.58,4.78,1.29s3.26.43,4.76,1.19c2.16.59,4.33,1.11,6.48,1.73.73.2,1.45.44,2.18.64,2.73.62,5.41,1.39,8.15,2C279.74,162.21,281.89,161.48,283,163.21Z"/><path class="cls-32" d="M245.85,213.89c0,15.8.38,31.58,1.16,47.35.77,15.57,2.2,31.07,4.47,46.5C253,317.9,255.05,328,257.3,338c.42,1.18-1,1.3-1.21,2.08l-.48,2.94c-3.13-3.74-4.67-8.31-6.11-12.79-8.57-26.73-12.69-54-9.83-82.14a146.76,146.76,0,0,1,5-27c.45-1.83.07-3.7.22-5.55C245,214.89,244.53,213.87,245.85,213.89Z"/><path class="cls-33" d="M256.09,340.05c-.43-1.19.88-1.35,1.21-2.08,1.75,5.61,3.52,11.22,5.22,16.84a7.23,7.23,0,0,1,0,2c-2.43-3.44-2.72-7.68-4.25-11.45C257.57,343.61,258.15,341.27,256.09,340.05Z"/><path class="cls-34" d="M48.4,329.55l-1.06-.36q0-6.33-.05-12.64c4.81-.15,9.21,1.42,13.5,3.31,3,1.32,5.93,2.82,8.83,4.36A31.82,31.82,0,0,0,89.21,328c.79,2.56-.1,5.12-.1,7.67a19.08,19.08,0,0,0,.62,5.84c.1,1.05.34,2.14-.91,2.74-.89-.4-1.08-1.27-1.37-2.07-.09-2.25-1.23-3.14-3.52-3.45-6.44-.85-12.38-3.57-18.55-5.43a77.69,77.69,0,0,0-14.32-2.74C50.1,330.43,49,330.56,48.4,329.55Z"/><path class="cls-35" d="M89.18,341.71c-1.12-3.27-.64-6.61-.31-9.91.13-1.27.26-2.54.34-3.82l1.11-.12c-1.19,3.56.1,7.36-1,10.93A2.09,2.09,0,0,1,89.18,341.71Z"/><path class="cls-36" d="M73,134.2l-.74.62-5.66-.29.07-.79Z"/><path class="cls-1" d="M278.17,161.82c-2.93-.06-5.6-1.13-8.3-2.07.28-2-.63-3.88-.59-5.89-1.19,1.65.42,3.9-1.28,5.38a27.78,27.78,0,0,1-6.65-1.64,3.73,3.73,0,0,1-.37-.81c-.56-1.73-1-3.74-2.86-.74a1,1,0,0,1-1.53.28c-1.57-.49-3.32-.34-4.73-1.35-.07-.47.22-.71.57-.93.56-.33,1.49-.51.94-1.48a1.38,1.38,0,0,0-1.87-.44c-1.66.71-3.12,0-4.64-.49a3.73,3.73,0,0,1-3-3.36,8.68,8.68,0,0,0-.14-.89,3.85,3.85,0,0,0-2.16-2.7c-.28-.14-.58.13-.63.44-.2,1.21.86,1.69,1.44,2.46,1.54,2,1.24,3.43-.94,4.59-1.58.31-3-1-4.61-.45,1.07-5.63.5-11.32.48-17,0-11.16,1.09-22.29.64-33.44-.08-2.09,1.69-4.21-.11-6.26l3.24-5.36a5.27,5.27,0,0,1,2.36-2c1.55-.55,1.16-1.52-.08-2.22,5.93-8.4,14.29-12.53,24.31-13.09a29.28,29.28,0,0,1,14.93,3.64c2.36,1.22,5,1.94,6.95,4-.51.32-.27.4.09.73a72.49,72.49,0,0,1,16.62,21.58c3,13.43,1.55,27,1.13,40.5-.21,7-.05,14-.09,21a31.35,31.35,0,0,1-2.09,10.44c-1.44.24-1.36-1-1.35-1.69,0-2.63-1.73-3.37-3.78-3.8-4.36-.92-8.6-2.31-12.93-3.36a4.6,4.6,0,0,1-2.9-1.33l0-2.23c-.61-2.94,1.13-5.41,1.71-8.1,1.12-5.23,2.65-10.37,4.06-15.53a3.37,3.37,0,0,0-.06-2.61c-3-5.62-4.93-11.72-7.75-17.42,2.19,4.48,3.72,9.24,6,13.68a2.7,2.7,0,0,0,1.39,3.29c1.49,1.84.24,3.73-.24,5.36-1.95,6.61-3.15,13.42-5.53,19.9-1.2,1.11-2.4.75-3.45-.17a3.37,3.37,0,0,1-1.26-3.71c.22-.79,1.13-1.65.11-2.41a2.22,2.22,0,0,0-2.54.17,3,3,0,0,1-3.43-.25c.66,2.23,2.11,2.81,3.54,3.49C278.82,158.45,279.52,159.85,278.17,161.82Z"/><path class="cls-37" d="M245.85,213.89c-1.49,2.23.35,5-1.15,7.21.49-21.4,1-42.8,2.8-64.14.07-.86-.66-2.43,1.27-2.42-.78,13.61-1.75,27.22-2.16,40.86C246.42,201.56,246.72,207.75,245.85,213.89Z"/><path class="cls-1" d="M241.48,152.18c1.79-1.77,1.91-3.44-.4-4.82-1.61-1-1.5-2.16-.69-3.52.44-.75,1.16-1,1.66-.21,1,1.45,2.9,2.23,2.65,4.64-.2,2,4,4.17,6.07,3.28.75-.31,1.4-.81,2.22-.52a2.3,2.3,0,0,1,1.75,2.16c0,2.12-2.19.75-2.88,1.79l-3-.48C246.55,153.29,243.75,153.57,241.48,152.18Z"/><path class="cls-28" d="M261.65,56.48c-1.77,0-3-.13-2.83-2.13,0-.2,0-.4,0-.6.22-3.09.7-6.33-4.19-5.73a1.24,1.24,0,0,1-1.44-.93c5.85.29,11.38-.58,16.06-4.45,1.08-.88,1.53-.31,1.78.84.51,2.24,1,4.51,3.3,5.79-3.51-.18-3.34-3.43-4.7-5.81-.6,1.38-3,.77-2.49,3.07.14.63-.66.54-1.13.56a7,7,0,0,0-1.78,0c-1.52.48-4.08,0-4.3,1.74C259.62,51.3,258.43,54.31,261.65,56.48Z"/><path class="cls-38" d="M260.89,59l3.58-3.28C264.5,57.93,263.6,59.16,260.89,59Z"/><path class="cls-39" d="M278.83,53.18c-1,.89-1.75,2.17-3.76,1.62,1.35-1.14,3.32-1.43,3.14-3.78a2.19,2.19,0,0,1,.64,2.11Z"/><path class="cls-16" d="M102.41,52.51c-1.91,1.6-3.84.26-5.77.08-.62-.06-1.44-1.16-1.78-.21-.75,2.1-2.43,1.65-3.34.92-2.77-2.23-4.44,1.11-6.72,1.09-.16,0-.29,1.26-.5,1.91-.54,1.65-1,3.37-3.32,3.47,2-1.14,2.1-3.14,2.63-5,.26-.93-.7-3.51,2-1.58.6.43.88-.38.92-.76.31-2.57,1.35-1.29,2.72-.81,1.55.53,3.6,2.52,5-.53.35-.77,1-.18,1.52,0a19.93,19.93,0,0,0,6.69,1.34Z"/><path class="cls-40" d="M95.34,55a9.48,9.48,0,0,1-4.78.28l0-.83,4.86-.23Z"/><path class="cls-41" d="M154.32,34.29c-3.8,4-4,4.7-3.09,9.64C148.55,40.89,149.73,36.42,154.32,34.29Z"/><path class="cls-42" d="M190.35,4.67c-3.79.21-6.34,2.06-7.8,5.88C182.13,6.2,186.13,3.26,190.35,4.67Z"/><path class="cls-43" d="M189.34,66.23c-3.71,1.91-3.83,5.38-3.9,8.87C183.48,70.86,184.82,67.7,189.34,66.23Z"/><path class="cls-44" d="M89.18,341.71l.12-2.92c1.9-1.26,4.2-.84,6.27-1.48,7-2.15,13.08-6.13,19.64-9.15,1.63-.75,3.18-2.07,5.22-1.4q0,13.74,0,27.47c0,1.06-.34,2.2.4,3.18.87,2.78,2.68,5.07,4.11,7.54,1.12,1.94.41,2.07-1.3,2.06q-15.65-.08-31.29-.07a4.21,4.21,0,0,1-2.32-3.18c-.1-4-1.72-7.77-2.46-11.69.22-1.63.14-3.28.2-4.92,0-1-.11-2.16.94-2.88A3.39,3.39,0,0,0,89.18,341.71Z"/><path class="cls-6" d="M48.4,329.55c10,.24,19.31,3.45,28.63,6.66,2.34.8,4.81,1.73,7.21,1.69,3.48,0,4.2,1.52,3.79,4.42.63,3.07.18,6.17-.23,9.15a20.65,20.65,0,0,0,3,13.82c.32.54.64,1,.11,1.58l-43.1,0q0-17.42-.06-34.83C47.79,331.18,47.62,330.25,48.4,329.55Z"/><path class="cls-35" d="M91,366.87c-6.1-7.57-3.54-16.18-2.92-24.55.72.47.48,1.3.71,1.95-.12,2.72.06,5.45-.55,8.14A37.68,37.68,0,0,0,90.63,364l1.75,2.91C91.86,367.92,91.42,367,91,366.87Z"/><path class="cls-6" d="M284.29,164.07c4.19.39,8.07,2.05,12.15,2.89,1.06.22,2.1.56,3.17.77,5,.94,5,.93,5.09,6.55.71.86.3,1.7,0,2.55a2.91,2.91,0,0,1,0,.59c-2.93,4-5.89,8-8.75,12-1.09,1.53-1.93,1.48-3.29.29-3.58-3.16-7.28-6.17-10.94-9.23-.85-.72-1.57-1.39-1.19-2.76C281.75,173.2,282.52,168.5,284.29,164.07Z"/><path class="cls-45" d="M287.84,132.22c-2.77-4.74-3.55-10.41-6.89-14.89-.41-.56-.52-1.19.19-1.43s1.05.24,1.32.89a114.79,114.79,0,0,0,4.9,11.17,20,20,0,0,1,1.44,17.85c-1.94,5.17-3,10.67-4.47,16l-.68-.06a.88.88,0,0,1-.06-1.27c1.22-4.53,2.63-9,3.61-13.61.82-3.85,3-7.5,2.1-11.67C288.05,134.6,288.15,133.31,287.84,132.22Z"/><path class="cls-1" d="M283.59,160.51l.06,1.27-.65,1.43c-1.62-.43-3.46-.11-4.83-1.39.28-2.11-.05-3.65-2.66-4a4,4,0,0,1-2.45-2.05c-.47-.76-1.29-1.47-.46-2.35s1.45,0,2,.48c.75.76,1.3.29,1.75-.24,1-1.18,2.05-.7,3.25-.44,1.45.31,1.87.7,1.08,2.17C278.92,158.61,279.89,160.22,283.59,160.51Z"/><path class="cls-1" d="M268,159.24c-.05-1.55.53-3.13-.25-4.65a1.12,1.12,0,0,1,.65-1.69,1.86,1.86,0,0,1,2,.22,1.1,1.1,0,0,1,.2,1.59,2.21,2.21,0,0,0,.37,3.13c1.46,1.49-.71,1.26-1.07,1.91A2.71,2.71,0,0,1,268,159.24Z"/><path class="cls-1" d="M256.59,156.33c.34-.17.89-.25,1-.52.5-1.21,1.37-3,2.35-2.55a3.6,3.6,0,0,1,1.41,4.34Z"/><path class="cls-1" d="M257.21,149.71a1.7,1.7,0,0,1-2.16-1.68c0-1.26,1-1.91,2.23-1.87a2.08,2.08,0,0,1,2.19,2C259.53,149.5,258.44,149.69,257.21,149.71Z"/><path class="cls-1" d="M253.05,88.51c0,1.08,0,2.17-.11,3.24s.47,1.13,1.25,1c-1,.83-2.07.34-1.66-.69C253,90.86,249.61,89.11,253.05,88.51Z"/><path class="cls-1" d="M271.64,86.7c-.9-1.28,1.58-3.55-1.24-4.28.93-1.88,1.56-.7,1.68.31C272.24,84,272.67,85.48,271.64,86.7Z"/><path class="cls-1" d="M262.23,95.91c0,.63-.45.83-1,.91a.81.81,0,0,1-1-.79A1,1,0,0,1,261,94.9C261.63,94.82,262,95.33,262.23,95.91Z"/><path class="cls-1" d="M287.84,132.22c.49,1,1,2,1.46,3C287.42,134.91,286.74,134,287.84,132.22Z"/><path class="cls-46" d="M90.63,364c-2.47-3.53-3.67-7.32-2.44-11.62C89.43,356.19,90.92,359.92,90.63,364Z"/></svg>