<svg id="Layer_1" data-name="Layer 1" xmlns="http://www.w3.org/2000/svg" viewBox="0 0 171.36 47.25"><defs><style>.cls-1{fill:#223e49;stroke:#223e49;stroke-miterlimit:10;stroke-width:0.25px;fill-rule:evenodd;}</style></defs><title>wave long logo</title><path class="cls-1" d="M88.91,44.75a5.17,5.17,0,1,0-5.17-5.17h0A5.19,5.19,0,0,0,88.91,44.75Z"/><path class="cls-1" d="M36.53.25a3.46,3.46,0,0,1,3.18,2.14L53.09,33.12,66.48,2.39A3.4,3.4,0,0,1,70.76.45h0a3.27,3.27,0,0,1,2,4.2l0,.08L56.22,42.6a3.69,3.69,0,0,1-2,1.94h0a3.25,3.25,0,0,1-2.3,0h0a3.41,3.41,0,0,1-1.74-1.48,4,4,0,0,1-.24-.46L36.53,11.72,23.09,42.6a4,4,0,0,1-.24.46,3.37,3.37,0,0,1-1.74,1.48h0a3.25,3.25,0,0,1-2.3,0h0a3.72,3.72,0,0,1-2-1.94L.35,4.73A3.28,3.28,0,0,1,2.21.48l.08,0h0A3.4,3.4,0,0,1,6.57,2.39L20,33.12,33.34,2.39A3.48,3.48,0,0,1,36.53.25Z"/><path class="cls-1" d="M71,44.54h0a3.39,3.39,0,0,0,4.28-1.94L88.67,11.84,102.06,42.6a3.38,3.38,0,0,0,4.28,1.94h0a3.27,3.27,0,0,0,2-4.18l0-.1L91.8,2.39c-.07-.16-.15-.31-.23-.46A3.47,3.47,0,0,0,89.82.45h0a3.37,3.37,0,0,0-2.3,0h0a3.5,3.5,0,0,0-1.74,1.48,4,4,0,0,0-.24.46L69.07,40.26a3.27,3.27,0,0,0,1.83,4.25Z"/><path class="cls-1" d="M140.66.45h0a3.4,3.4,0,0,0-4.28,1.94L123,33.12,109.61,2.39A3.4,3.4,0,0,0,105.33.45h0a3.29,3.29,0,0,0-2,4.2l0,.08L119.87,42.6c.07.16.15.31.23.46a3.43,3.43,0,0,0,1.75,1.48h0a3.25,3.25,0,0,0,2.3,0h0a3.37,3.37,0,0,0,1.74-1.48,4,4,0,0,0,.24-.46L142.6,4.73A3.28,3.28,0,0,0,140.74.48Z"/><path class="cls-1" d="M136.78,3.63h0a3.55,3.55,0,0,1,3.57-3.5h27.31a3.55,3.55,0,0,1,3.58,3.5h0a3.55,3.55,0,0,1-3.58,3.5H140.35A3.56,3.56,0,0,1,136.78,3.63Z"/><path class="cls-1" d="M140.29,22.63h0c0-1.93,1-3.5,2.13-3.5h11c1.16,0,2.12,1.57,2.12,3.5h0c0,1.92-1,3.5-2.12,3.5h-11C141.24,26.08,140.29,24.55,140.29,22.63Z"/><path class="cls-1" d="M136.81,43.63h0a3.55,3.55,0,0,1,3.58-3.5h27.27a3.54,3.54,0,0,1,3.57,3.5h0a3.54,3.54,0,0,1-3.57,3.5H140.39A3.55,3.55,0,0,1,136.81,43.63Z"/></svg>