<svg id="Layer_1" data-name="Layer 1" xmlns="http://www.w3.org/2000/svg" viewBox="0 0 101.25 44.25"><defs><style>.cls-1{fill:white;stroke:white;stroke-miterlimit:10;stroke-width:0px;fill-rule:evenodd;}</style></defs><title>wave short logo</title><path class="cls-1" d="M66.93,3.64h0A3.52,3.52,0,0,1,70.44.13H97.57a3.53,3.53,0,0,1,3.56,3.5h0a3.53,3.53,0,0,1-3.55,3.49H70.44A3.54,3.54,0,0,1,66.93,3.64Z"/><path class="cls-1" d="M69.79,21.62h0c0-1.92.94-3.49,2.06-3.49h10.8c1.15,0,2.06,1.57,2.06,3.49h0c0,1.93-.95,3.51-2.06,3.51H71.88C70.73,25.07,69.79,23.5,69.79,21.62Z"/><path class="cls-1" d="M65.05,40.59h0a3.53,3.53,0,0,1,3.53-3.46H95.86a3.54,3.54,0,0,1,3.57,3.49h0a3.55,3.55,0,0,1-3.57,3.51H68.58A3.55,3.55,0,0,1,65.05,40.59Z"/><path class="cls-1" d="M36.71.13a3.45,3.45,0,0,1,3.2,2.11L53.37,32.59,66.87,2.24A3.44,3.44,0,0,1,71.18.34h0A3.22,3.22,0,0,1,73.13,4.5l0,.06L56.52,41.91a3.21,3.21,0,0,1-.24.45,3.44,3.44,0,0,1-1.75,1.46h0a3.3,3.3,0,0,1-1.16.21,3.26,3.26,0,0,1-1.16-.21h0a3.37,3.37,0,0,1-1.74-1.46,2.46,2.46,0,0,1-.25-.45L36.72,11.44,23.22,41.91a3.21,3.21,0,0,1-.24.45,3.42,3.42,0,0,1-1.76,1.46h0a3.28,3.28,0,0,1-2.31,0h0a3.44,3.44,0,0,1-1.75-1.46,3.21,3.21,0,0,1-.24-.45L.35,4.54A3.22,3.22,0,0,1,2.22.35l.06,0h0a3.44,3.44,0,0,1,4.3,1.9L20.09,32.57,33.59,2.22A3.47,3.47,0,0,1,36.71.13Z"/><path class="cls-1" d="M36.42,42.08A4.38,4.38,0,1,0,32,37.7,4.42,4.42,0,0,0,36.42,42.08Z"/></svg>
